# Blender 4.0.2
# www.blender.org
o Cube
v -0.210000 0.000000 0.126000
v -0.210000 0.840000 0.126000
v -0.210000 -0.000000 -0.210000
v -0.210000 0.840000 -0.210000
v 0.210000 0.000000 0.126000
v 0.210000 0.840000 0.126000
v 0.210000 -0.000000 -0.210000
v 0.210000 0.840000 -0.210000
v -0.197767 0.046732 0.168000
v -0.197767 0.794866 0.168000
v 0.197767 0.794866 0.168000
v 0.197767 0.046732 0.168000
v -0.222600 0.000000 0.126000
v -0.222600 0.840000 0.126000
v 0.222600 0.840000 0.126000
v 0.222600 0.000000 0.126000
v -0.210000 0.000000 0.168000
v -0.210000 0.840000 0.168000
v 0.210000 0.840000 0.168000
v 0.210000 0.000000 0.168000
v -0.197767 0.046732 -0.188400
v -0.197767 0.794866 -0.188400
v 0.197767 0.794866 -0.188400
v 0.197767 0.046732 -0.188400
v 0.197767 0.146954 -0.188400
v -0.197767 0.146954 -0.188400
v 0.197767 0.146954 0.115525
v -0.197767 0.146954 0.115525
v 0.197767 0.154393 -0.188400
v -0.197767 0.154393 -0.188400
v 0.197767 0.272954 -0.188400
v -0.197767 0.272954 -0.188400
v 0.197767 0.272954 0.115525
v -0.197767 0.272954 0.115525
v 0.197767 0.280393 -0.188400
v -0.197767 0.280393 -0.188400
v 0.197767 0.398954 -0.188400
v -0.197767 0.398954 -0.188400
v 0.197767 0.398954 0.115525
v -0.197767 0.398954 0.115525
v 0.197767 0.406393 -0.188400
v -0.197767 0.406393 -0.188400
v 0.197767 0.524954 -0.188400
v -0.197767 0.524954 -0.188400
v 0.197767 0.524954 0.115525
v -0.197767 0.524954 0.115525
v 0.197767 0.532393 -0.188400
v -0.197767 0.532393 -0.188400
v 0.197767 0.650954 -0.188400
v -0.197767 0.650954 -0.188400
v 0.197767 0.650954 0.115525
v -0.197767 0.650954 0.115525
v 0.197767 0.658393 -0.188400
v -0.197767 0.658393 -0.188400
v 0.265971 0.358200 -0.204991
v 0.265971 0.335030 -0.204991
v 0.317811 0.358200 -0.204991
v 0.317811 0.335030 -0.204991
v 0.259622 0.358200 -0.204991
v 0.259622 0.001800 -0.204991
v 0.324160 0.358200 -0.204991
v 0.324160 0.001800 -0.204991
v 0.271543 0.335030 0.160201
v 0.259896 0.335030 0.137382
v 0.265571 0.335030 0.157143
v 0.261308 0.335030 0.148791
v 0.259896 0.358200 0.137382
v 0.271543 0.358200 0.160201
v 0.261308 0.358200 0.148791
v 0.265571 0.358200 0.157143
v 0.323886 0.335030 0.137382
v 0.312239 0.335030 0.160201
v 0.322474 0.335030 0.148791
v 0.318211 0.335030 0.157143
v 0.312239 0.358200 0.160201
v 0.323886 0.358200 0.137382
v 0.318211 0.358200 0.157143
v 0.322474 0.358200 0.148791
v 0.253526 0.001800 0.156594
v 0.265194 0.001800 0.179356
v 0.254949 0.001800 0.167975
v 0.259219 0.001800 0.176306
v 0.265194 0.358200 0.179356
v 0.253526 0.358200 0.156594
v 0.259219 0.358200 0.176306
v 0.254949 0.358200 0.167975
v 0.330256 0.001800 0.156594
v 0.318588 0.001800 0.179356
v 0.328833 0.001800 0.167975
v 0.324562 0.001800 0.176306
v 0.330256 0.358200 0.156594
v 0.318588 0.358200 0.179356
v 0.328833 0.358200 0.167975
v 0.324562 0.358200 0.176306
v 0.258641 0.344211 0.162450
v 0.325754 0.344211 0.162450
v 0.266264 0.344211 -0.186223
v 0.318131 0.344211 -0.186223
v 0.271832 0.341011 0.084114
v 0.271832 0.361447 0.084114
v 0.271832 0.341011 0.059620
v 0.271832 0.361447 0.059620
v 0.273068 0.341011 0.084114
v 0.273068 0.361447 0.084114
v 0.273068 0.341011 0.059620
v 0.273068 0.361447 0.059620
v 0.276880 0.341011 -0.033688
v 0.276880 0.361447 -0.033688
v 0.276880 0.341011 -0.058181
v 0.276880 0.361447 -0.058181
v 0.278116 0.341011 -0.033688
v 0.278116 0.361447 -0.033688
v 0.278116 0.341011 -0.058181
v 0.278116 0.361447 -0.058181
v 0.273995 0.341011 0.047494
v 0.273995 0.361447 0.047494
v 0.273995 0.341011 0.023000
v 0.273995 0.361447 0.023000
v 0.275232 0.341011 0.047494
v 0.275232 0.361447 0.047494
v 0.275232 0.341011 0.023000
v 0.275232 0.361447 0.023000
v 0.276014 0.341011 0.003373
v 0.276014 0.361447 0.003373
v 0.276014 0.341011 -0.021120
v 0.276014 0.361447 -0.021120
v 0.277251 0.341011 0.003373
v 0.277251 0.361447 0.003373
v 0.277251 0.341011 -0.021120
v 0.277251 0.361447 -0.021120
v 0.278079 0.341011 -0.069426
v 0.278079 0.361447 -0.069426
v 0.278079 0.341011 -0.093919
v 0.278079 0.361447 -0.093919
v 0.279316 0.341011 -0.069426
v 0.279316 0.361447 -0.069426
v 0.279316 0.341011 -0.093919
v 0.279316 0.361447 -0.093919
v 0.280819 0.341011 -0.111340
v 0.280819 0.361447 -0.111340
v 0.280819 0.341011 -0.135833
v 0.280819 0.361447 -0.135833
v 0.282056 0.341011 -0.111340
v 0.282056 0.361447 -0.111340
v 0.282056 0.341011 -0.135833
v 0.282056 0.361447 -0.135833
v 0.283704 0.341011 -0.144872
v 0.283704 0.361447 -0.144872
v 0.283704 0.341011 -0.169365
v 0.283704 0.361447 -0.169365
v 0.284941 0.341011 -0.144872
v 0.284941 0.361447 -0.144872
v 0.284941 0.341011 -0.169365
v 0.284941 0.361447 -0.169365
v 0.269091 0.341011 0.120734
v 0.269091 0.361447 0.120734
v 0.269091 0.341011 0.096240
v 0.269091 0.361447 0.096240
v 0.270328 0.341011 0.120734
v 0.270328 0.361447 0.120734
v 0.270328 0.341011 0.096240
v 0.270328 0.361447 0.096240
v 0.299236 0.361447 0.040648
v 0.299236 0.341011 0.040648
v 0.299236 0.361447 0.065142
v 0.299236 0.341011 0.065142
v 0.297999 0.361447 0.040648
v 0.297999 0.341011 0.040648
v 0.297999 0.361447 0.065142
v 0.297999 0.341011 0.065142
v 0.296351 0.361447 0.074180
v 0.296351 0.341011 0.074180
v 0.296351 0.361447 0.098673
v 0.296351 0.341011 0.098673
v 0.295114 0.361447 0.074180
v 0.295114 0.341011 0.074180
v 0.295114 0.361447 0.098673
v 0.295114 0.341011 0.098673
v 0.293611 0.361447 0.116094
v 0.293611 0.341011 0.116094
v 0.293611 0.361447 0.140588
v 0.293611 0.341011 0.140588
v 0.292374 0.361447 0.116094
v 0.292374 0.341011 0.116094
v 0.292374 0.361447 0.140588
v 0.292374 0.341011 0.140588
v 0.307442 0.361447 -0.072741
v 0.307442 0.341011 -0.072741
v 0.307442 0.361447 -0.048248
v 0.307442 0.341011 -0.048248
v 0.306205 0.361447 -0.072741
v 0.306205 0.341011 -0.072741
v 0.306205 0.361447 -0.048248
v 0.306205 0.341011 -0.048248
v 0.304557 0.361447 -0.039210
v 0.304557 0.341011 -0.039210
v 0.304557 0.361447 -0.014716
v 0.304557 0.341011 -0.014716
v 0.303321 0.361447 -0.039210
v 0.303321 0.341011 -0.039210
v 0.303321 0.361447 -0.014716
v 0.303321 0.341011 -0.014716
v 0.301817 0.361447 0.002705
v 0.301817 0.341011 0.002705
v 0.301817 0.361447 0.027198
v 0.301817 0.341011 0.027198
v 0.300580 0.361447 0.002705
v 0.300580 0.341011 0.002705
v 0.300580 0.361447 0.027198
v 0.300580 0.341011 0.027198
v 0.314854 0.361447 -0.178189
v 0.314854 0.341011 -0.178189
v 0.314854 0.361447 -0.153696
v 0.314854 0.341011 -0.153696
v 0.313618 0.361447 -0.178189
v 0.313618 0.341011 -0.178189
v 0.313618 0.361447 -0.153696
v 0.313618 0.341011 -0.153696
v 0.311970 0.361447 -0.144657
v 0.311970 0.341011 -0.144657
v 0.311970 0.361447 -0.120164
v 0.311970 0.341011 -0.120164
v 0.310733 0.361447 -0.144657
v 0.310733 0.341011 -0.144657
v 0.310733 0.361447 -0.120164
v 0.310733 0.341011 -0.120164
v 0.309229 0.361447 -0.102743
v 0.309229 0.341011 -0.102743
v 0.309229 0.361447 -0.078250
v 0.309229 0.341011 -0.078250
v 0.307993 0.361447 -0.102743
v 0.307993 0.341011 -0.102743
v 0.307993 0.361447 -0.078250
v 0.307993 0.341011 -0.078250
v -0.216185 0.000000 0.168000
v -0.222600 0.000000 0.161585
v -0.218640 0.000000 0.167512
v -0.220721 0.000000 0.166121
v -0.222112 0.000000 0.164040
v -0.222600 0.840000 0.161585
v -0.216185 0.840000 0.168000
v -0.222112 0.840000 0.164040
v -0.220721 0.840000 0.166121
v -0.218640 0.840000 0.167511
v 0.216185 0.840000 0.168000
v 0.222600 0.840000 0.161585
v 0.218640 0.840000 0.167511
v 0.220721 0.840000 0.166121
v 0.222112 0.840000 0.164040
v 0.222600 0.000000 0.161585
v 0.216185 0.000000 0.168000
v 0.222112 0.000000 0.164040
v 0.220721 0.000000 0.166121
v 0.218640 0.000000 0.167512
v 0.197767 0.154393 0.112270
v 0.197767 0.151137 0.115525
v 0.197767 0.154145 0.113516
v 0.197767 0.153439 0.114572
v 0.197767 0.152383 0.115278
v -0.197767 0.151137 0.115525
v -0.197767 0.154393 0.112270
v -0.197767 0.152383 0.115278
v -0.197767 0.153439 0.114572
v -0.197767 0.154145 0.113516
v 0.197767 0.280393 0.112270
v 0.197767 0.277138 0.115525
v 0.197767 0.280145 0.113516
v 0.197767 0.279439 0.114572
v 0.197767 0.278383 0.115278
v -0.197767 0.277138 0.115525
v -0.197767 0.280393 0.112270
v -0.197767 0.278383 0.115278
v -0.197767 0.279439 0.114572
v -0.197767 0.280145 0.113516
v 0.197767 0.406393 0.112270
v 0.197767 0.403138 0.115525
v 0.197767 0.406145 0.113516
v 0.197767 0.405439 0.114572
v 0.197767 0.404383 0.115278
v -0.197767 0.403138 0.115525
v -0.197767 0.406393 0.112270
v -0.197767 0.404383 0.115278
v -0.197767 0.405439 0.114572
v -0.197767 0.406145 0.113516
v 0.197767 0.532393 0.112270
v 0.197767 0.529138 0.115525
v 0.197767 0.532145 0.113516
v 0.197767 0.531439 0.114572
v 0.197767 0.530383 0.115277
v -0.197767 0.529138 0.115525
v -0.197767 0.532393 0.112270
v -0.197767 0.530383 0.115277
v -0.197767 0.531439 0.114572
v -0.197767 0.532145 0.113516
v 0.197767 0.658393 0.112270
v 0.197767 0.655138 0.115525
v 0.197767 0.658145 0.113516
v 0.197767 0.657439 0.114572
v 0.197767 0.656383 0.115277
v -0.197767 0.655138 0.115525
v -0.197767 0.658393 0.112270
v -0.197767 0.656383 0.115277
v -0.197767 0.657439 0.114572
v -0.197767 0.658145 0.113516
v -0.201064 0.044451 0.156711
v 0.201064 0.044451 0.156711
v -0.201064 0.800160 0.156711
v 0.201064 0.800160 0.156711
vn -1.0000 -0.0000 -0.0000
vn 1.0000 -0.0000 -0.0000
vn -0.0000 1.0000 -0.0000
vn -0.0000 -0.0000 1.0000
vn -0.0000 -0.0000 -1.0000
vn -0.0000 -1.0000 -0.0000
vn 0.9986 -0.0000 0.0537
vn 0.9999 -0.0000 -0.0169
vn 0.7032 0.7109 -0.0119
vn 0.7213 0.6916 0.0388
vn 0.1760 0.6581 0.7321
vn -0.1760 0.6581 0.7321
vn -0.2338 -0.0000 0.9723
vn 0.2338 -0.0000 0.9723
vn -0.1513 0.7639 -0.6274
vn 0.1513 0.7639 -0.6274
vn -0.7213 0.6916 0.0388
vn -0.7032 0.7109 -0.0119
vn -0.9999 -0.0000 -0.0169
vn -0.9986 -0.0000 0.0537
vn -0.9986 -0.0000 -0.0527
vn -0.6896 0.7233 -0.0364
vn -0.7110 0.7031 0.0126
vn -0.9998 -0.0000 0.0177
vn 0.2344 -0.0000 -0.9721
vn -0.2344 -0.0000 -0.9721
vn 0.6896 0.7233 -0.0364
vn 0.7110 0.7031 0.0126
vn 0.7075 -0.0000 -0.7067
vn 0.4398 0.7834 -0.4392
vn 0.9561 -0.0000 -0.2932
vn 0.6342 0.7483 -0.1945
vn 0.9986 -0.0000 -0.0527
vn -0.9561 -0.0000 -0.2932
vn -0.6342 0.7483 -0.1945
vn -0.7075 -0.0000 -0.7067
vn -0.4398 0.7834 -0.4392
vn -0.5405 0.6440 0.5414
vn -0.7065 -0.0000 0.7077
vn -0.7094 0.6700 0.2187
vn -0.9556 -0.0000 0.2946
vn 0.7065 -0.0000 0.7077
vn 0.5405 0.6440 0.5414
vn 0.9556 -0.0000 0.2946
vn 0.7094 0.6700 0.2187
vn 0.9998 -0.0000 0.0177
vn 0.9808 -0.0000 0.1951
vn 0.9239 -0.0000 0.3827
vn 0.7071 -0.0000 0.7071
vn 0.3827 -0.0000 0.9239
vn 0.1951 -0.0000 0.9808
vn -0.1951 -0.0000 0.9808
vn -0.3827 -0.0000 0.9239
vn -0.7071 -0.0000 0.7071
vn -0.9239 -0.0000 0.3827
vn -0.9808 -0.0000 0.1951
vn -0.0000 0.1951 0.9808
vn -0.0000 0.3827 0.9239
vn -0.0000 0.7071 0.7071
vn -0.0000 0.9239 0.3827
vn -0.0000 0.9808 0.1951
vt 0.433370 0.174248
vt 0.001500 0.174248
vt 0.001500 0.001500
vt 0.433370 0.001500
vt 0.433371 0.998505
vt 0.001500 0.998505
vt 0.001500 0.825756
vt 0.433371 0.825756
vt 0.571809 0.524827
vt 0.571809 0.325496
vt 0.591742 0.325496
vt 0.591742 0.524827
vt 0.412345 0.524827
vt 0.412345 0.325496
vt 0.409344 0.784918
vt 0.024704 0.784918
vt 0.024704 0.601681
vt 0.409344 0.601681
vt 0.958247 0.001547
vt 0.958247 0.001547
vt 0.958247 0.001547
vt 0.433371 0.819278
vt 0.001500 0.819278
vt 0.001500 0.800983
vt 0.433370 0.800983
vt 0.433370 0.208798
vt 0.001500 0.208798
vt 0.001500 0.205618
vt 0.433370 0.205618
vt 0.433370 0.180726
vt 0.001500 0.180726
vt 0.955147 0.001546
vt 0.955147 0.001546
vt 0.955147 0.001546
vt 0.001500 0.791207
vt 0.433371 0.791207
vt 0.433370 0.794387
vt 0.001500 0.794387
vt 0.409344 0.215087
vt 0.024704 0.215087
vt 0.624760 0.783847
vt 0.624760 0.549197
vt 0.652484 0.541941
vt 0.652484 0.791104
vt 0.613163 0.331302
vt 0.613163 0.519021
vt 0.024704 0.398324
vt 0.409344 0.398324
vt 0.413327 0.783847
vt 0.413327 0.549197
vt 0.782309 0.331302
vt 0.782309 0.519021
vt 0.682454 0.321772
vt 0.436366 0.321772
vt 0.436366 0.001508
vt 0.682454 0.001508
vt 0.682454 0.321767
vt 0.682454 0.001503
vt 0.685841 0.001503
vt 0.685841 0.321767
vt 0.691112 0.321772
vt 0.691112 0.001508
vt 0.934565 0.001508
vt 0.934565 0.321772
vt 0.436366 0.321767
vt 0.436366 0.001503
vt 0.685841 0.001508
vt 0.685841 0.321772
vt 0.691112 0.321767
vt 0.691112 0.001503
vt 0.934565 0.001503
vt 0.934565 0.321767
vt 0.682454 0.321767
vt 0.682454 0.001502
vt 0.685841 0.001502
vt 0.685841 0.321767
vt 0.691112 0.001508
vt 0.934565 0.001508
vt 0.934565 0.321772
vt 0.436366 0.321767
vt 0.436366 0.001502
vt 0.682454 0.321767
vt 0.685841 0.321767
vt 0.691112 0.321767
vt 0.691112 0.001502
vt 0.934565 0.001502
vt 0.934565 0.321767
vt 0.436366 0.321766
vt 0.691112 0.321767
vt 0.691112 0.001502
vt 0.934565 0.001502
vt 0.934565 0.321767
vt 0.981676 0.765550
vt 0.971714 0.981602
vt 0.758402 0.949612
vt 0.834217 0.761978
vt 0.836852 0.751260
vt 0.836957 0.732577
vt 0.981134 0.727950
vt 0.981861 0.753482
vt 0.827396 0.753859
vt 0.828198 0.730535
vt 0.834428 0.722450
vt 0.759600 0.523390
vt 0.964673 0.507612
vt 0.980684 0.715698
vt 0.812881 0.769066
vt 0.826216 0.771614
vt 0.755182 0.948386
vt 0.743578 0.943770
vt 0.814655 0.730897
vt 0.813943 0.754081
vt 0.826653 0.712845
vt 0.756171 0.524604
vt 0.814502 0.727304
vt 0.828595 0.726388
vt 0.813972 0.722134
vt 0.828182 0.720253
vt 0.812862 0.715683
vt 0.813655 0.762901
vt 0.827790 0.764221
vt 0.813905 0.757818
vt 0.828079 0.758034
vt 0.837053 0.730197
vt 0.981032 0.724983
vt 0.836241 0.727026
vt 0.980876 0.720712
vt 0.981817 0.756546
vt 0.836965 0.753788
vt 0.981755 0.760651
vt 0.836127 0.757182
vt 0.743559 0.529293
vt 0.980141 0.226572
vt 0.937589 0.226572
vt 0.942422 0.005504
vt 0.975307 0.005504
vt 0.937568 0.231509
vt 0.962498 0.231509
vt 0.962498 0.256438
vt 0.937568 0.256438
vt 0.962498 0.281368
vt 0.937568 0.281368
vt 0.962498 0.306298
vt 0.937568 0.306298
vt 0.962498 0.331228
vt 0.937568 0.331228
vt 0.987428 0.281368
vt 0.987428 0.306298
vt 0.937561 0.231518
vt 0.962490 0.231518
vt 0.962490 0.256448
vt 0.937561 0.256448
vt 0.962490 0.281378
vt 0.937561 0.281378
vt 0.962490 0.306307
vt 0.937561 0.306307
vt 0.962490 0.331237
vt 0.937561 0.331237
vt 0.987420 0.281378
vt 0.987420 0.306307
vt 0.937568 0.231515
vt 0.962498 0.231515
vt 0.962498 0.256445
vt 0.937568 0.256445
vt 0.962498 0.281375
vt 0.937568 0.281375
vt 0.962498 0.306304
vt 0.937568 0.306304
vt 0.962498 0.331234
vt 0.937568 0.331234
vt 0.987428 0.281375
vt 0.987428 0.306304
vt 0.937561 0.231512
vt 0.962490 0.231512
vt 0.962490 0.256441
vt 0.937561 0.256441
vt 0.962490 0.281371
vt 0.937561 0.281371
vt 0.962490 0.306301
vt 0.937561 0.306301
vt 0.962490 0.331231
vt 0.937561 0.331231
vt 0.987420 0.281371
vt 0.987420 0.306301
vt 0.937568 0.231510
vt 0.962498 0.231510
vt 0.962498 0.256440
vt 0.937568 0.256440
vt 0.962498 0.281369
vt 0.937568 0.281369
vt 0.962498 0.306299
vt 0.937568 0.306299
vt 0.962498 0.331229
vt 0.937568 0.331229
vt 0.987428 0.281369
vt 0.987428 0.306299
vt 0.937561 0.231505
vt 0.962490 0.231505
vt 0.962490 0.256435
vt 0.937561 0.256435
vt 0.962490 0.281365
vt 0.937561 0.281365
vt 0.962490 0.306295
vt 0.937561 0.306295
vt 0.962490 0.331224
vt 0.937561 0.331224
vt 0.987420 0.281365
vt 0.987420 0.306295
vt 0.937568 0.231505
vt 0.962498 0.231505
vt 0.962498 0.256434
vt 0.937568 0.256434
vt 0.962498 0.281364
vt 0.937568 0.281364
vt 0.962498 0.306294
vt 0.937568 0.306294
vt 0.962498 0.331224
vt 0.937568 0.331224
vt 0.987428 0.281364
vt 0.987428 0.306294
vt 0.937561 0.231511
vt 0.962490 0.231511
vt 0.962490 0.256440
vt 0.937561 0.256440
vt 0.962490 0.281370
vt 0.937561 0.281370
vt 0.962490 0.306300
vt 0.937561 0.306300
vt 0.962490 0.331229
vt 0.937561 0.331229
vt 0.987420 0.281370
vt 0.987420 0.306300
vt 0.962498 0.281371
vt 0.987428 0.281371
vt 0.987428 0.306300
vt 0.962498 0.306300
vt 0.937568 0.306300
vt 0.962498 0.331230
vt 0.937568 0.331230
vt 0.937568 0.281371
vt 0.937568 0.256441
vt 0.962498 0.256441
vt 0.937568 0.231511
vt 0.962498 0.231511
vt 0.962496 0.281365
vt 0.987425 0.281365
vt 0.987425 0.306295
vt 0.962496 0.306295
vt 0.937566 0.306295
vt 0.962496 0.331225
vt 0.937566 0.331225
vt 0.937566 0.281365
vt 0.937566 0.256436
vt 0.962496 0.256436
vt 0.937566 0.231506
vt 0.962496 0.231506
vt 0.962493 0.281376
vt 0.987422 0.281376
vt 0.987422 0.306306
vt 0.962493 0.306306
vt 0.937563 0.306306
vt 0.962493 0.331236
vt 0.937563 0.331236
vt 0.937563 0.281376
vt 0.937563 0.256447
vt 0.962493 0.256447
vt 0.937563 0.231517
vt 0.962493 0.231517
vt 0.962495 0.281376
vt 0.987424 0.281376
vt 0.987424 0.306306
vt 0.962495 0.306306
vt 0.937565 0.306306
vt 0.962495 0.331235
vt 0.937565 0.331235
vt 0.937565 0.281376
vt 0.937565 0.256446
vt 0.962495 0.256446
vt 0.937565 0.231516
vt 0.962495 0.231516
vt 0.962497 0.281368
vt 0.987427 0.281368
vt 0.987427 0.306297
vt 0.962497 0.306297
vt 0.937567 0.306297
vt 0.962497 0.331227
vt 0.937567 0.331227
vt 0.937567 0.281368
vt 0.937567 0.256438
vt 0.962497 0.256438
vt 0.937567 0.231508
vt 0.962497 0.231508
vt 0.962489 0.281368
vt 0.987419 0.281368
vt 0.987419 0.306297
vt 0.962489 0.306297
vt 0.937559 0.306297
vt 0.962489 0.331227
vt 0.937559 0.331227
vt 0.937559 0.281368
vt 0.937559 0.256438
vt 0.962489 0.256438
vt 0.937559 0.231508
vt 0.962489 0.231508
vt 0.962493 0.281377
vt 0.987423 0.281377
vt 0.987423 0.306307
vt 0.962493 0.306307
vt 0.937563 0.306307
vt 0.962493 0.331237
vt 0.937563 0.331237
vt 0.937563 0.281377
vt 0.937563 0.256448
vt 0.962493 0.256448
vt 0.937563 0.231518
vt 0.962493 0.231518
vt 0.962495 0.281367
vt 0.987425 0.281367
vt 0.987425 0.306297
vt 0.962495 0.306297
vt 0.937565 0.306297
vt 0.962495 0.331226
vt 0.937565 0.331226
vt 0.937565 0.281367
vt 0.937565 0.256437
vt 0.962495 0.256437
vt 0.937565 0.231508
vt 0.962495 0.231508
vt 0.962491 0.281378
vt 0.987421 0.281378
vt 0.987421 0.306308
vt 0.962491 0.306308
vt 0.937562 0.306308
vt 0.962491 0.331237
vt 0.937562 0.331237
vt 0.937562 0.281378
vt 0.937562 0.256448
vt 0.962491 0.256448
vt 0.937562 0.231519
vt 0.962491 0.231519
vt 0.001500 0.799721
vt 0.433371 0.799721
vt 0.001500 0.797685
vt 0.433371 0.797685
vt 0.001500 0.795649
vt 0.433371 0.795649
vt 0.001500 0.204356
vt 0.433370 0.204356
vt 0.001500 0.202320
vt 0.433370 0.202320
vt 0.001500 0.200284
vt 0.433370 0.200284
vt 0.001500 0.199021
vt 0.433370 0.199021
vt 0.686850 0.001508
vt 0.686850 0.321772
vt 0.688477 0.001508
vt 0.688477 0.321772
vt 0.690104 0.001508
vt 0.690104 0.321772
vt 0.686850 0.001503
vt 0.686850 0.321767
vt 0.688477 0.001503
vt 0.688477 0.321767
vt 0.690104 0.001503
vt 0.690104 0.321767
vt 0.686850 0.001502
vt 0.686850 0.321767
vt 0.688477 0.001502
vt 0.688477 0.321767
vt 0.690104 0.001502
vt 0.690104 0.321767
vt 0.686850 0.321767
vt 0.688477 0.321767
vt 0.690104 0.321767
vt 0.000000 0.000000
vt 1.000000 0.000000
vt 1.000000 1.000000
vt 0.000000 1.000000
s 1
f 1/1/1 2/2/1 4/3/1 3/4/1
f 7/5/2 8/6/2 6/7/2 5/8/2
f 6/9/3 2/10/3 18/11/3 19/12/3
f 8/13/3 4/14/3 2/10/3 6/9/3
f 12/15/1 11/16/1 23/17/1 24/18/1
f 6/19/3 19/19/3 245/20/3 247/21/3 248/20/3 249/19/3 246/20/3 15/19/3
f 16/22/2 15/23/2 246/24/2 250/25/2
f 17/26/4 18/27/4 241/28/4 235/29/4
f 2/2/5 1/1/5 13/30/5 14/31/5
f 18/32/3 2/32/3 14/32/3 240/32/3 242/32/3 243/33/3 244/34/3 241/32/3
f 19/35/4 20/36/4 251/37/4 245/38/4
f 5/8/5 6/7/5 15/23/5 16/22/5
f 9/39/4 10/40/4 18/27/4 17/26/4
f 11/16/4 12/15/4 20/36/4 19/35/4
f 12/41/4 9/42/4 17/43/4 20/44/4
f 10/45/4 11/46/4 19/12/4 18/11/4
f 24/18/4 23/17/4 22/47/4 21/48/4
f 9/42/3 12/41/3 24/49/3 21/50/3
f 10/40/2 9/39/2 21/48/2 22/47/2
f 11/46/6 10/45/6 22/51/6 23/52/6
f 28/53/6 26/54/6 25/55/6 27/56/6
f 34/57/4 33/58/4 266/59/4 270/60/4
f 261/61/3 255/62/3 29/63/3 30/64/3
f 34/57/6 32/65/6 31/66/6 33/58/6
f 40/53/4 39/56/4 276/67/4 280/68/4
f 271/69/3 265/70/3 35/71/3 36/72/3
f 40/53/6 38/54/6 37/55/6 39/56/6
f 46/73/4 45/74/4 286/75/4 290/76/4
f 281/61/3 275/77/3 41/78/3 42/79/3
f 46/73/6 44/80/6 43/81/6 45/74/6
f 52/82/4 51/74/4 296/75/4 300/83/4
f 291/84/3 285/85/3 47/86/3 48/87/3
f 52/82/6 50/88/6 49/81/6 51/74/6
f 301/89/3 295/90/3 53/91/3 54/92/3
f 87/93/7 62/94/8 61/95/9 91/96/10
f 92/97/11 83/98/12 80/99/13 88/100/14
f 75/101/15 68/102/16 83/98/12 92/97/11
f 84/103/17 59/104/18 60/105/19 79/106/20
f 71/107/21 76/108/22 57/109/23 58/110/24
f 61/95/9 57/109/23 76/108/22 91/96/10
f 63/111/25 68/102/16 75/101/15 72/112/26
f 59/104/18 84/103/17 67/113/27 55/114/28
f 68/102/16 63/111/25 65/115/29 70/116/30
f 70/116/30 65/115/29 66/117/31 69/118/32
f 69/118/32 66/117/31 64/119/33 67/113/27
f 76/108/22 71/107/21 73/120/34 78/121/35
f 78/121/35 73/120/34 74/122/36 77/123/37
f 77/123/37 74/122/36 72/112/26 75/101/15
f 80/99/13 83/98/12 85/124/38 82/125/39
f 82/125/39 85/124/38 86/126/40 81/127/41
f 81/127/41 86/126/40 84/103/17 79/106/20
f 92/97/11 88/100/14 90/128/42 94/129/43
f 94/129/43 90/128/42 89/130/44 93/131/45
f 93/131/45 89/130/44 87/93/7 91/96/10
f 75/101/15 92/97/11 94/129/43 77/123/37
f 77/123/37 94/129/43 93/131/45 78/121/35
f 78/121/35 93/131/45 91/96/10 76/108/22
f 67/113/27 84/103/17 86/126/40 69/118/32
f 69/118/32 86/126/40 85/124/38 70/116/30
f 70/116/30 85/124/38 83/98/12 68/102/16
f 67/113/27 64/119/33 56/132/46 55/114/28
f 95/133/3 96/134/3 98/135/3 97/136/3
f 99/137/1 100/138/1 102/139/1 101/140/1
f 101/140/5 102/139/5 106/141/5 105/142/5
f 105/142/2 106/141/2 104/143/2 103/144/2
f 103/144/4 104/143/4 100/145/4 99/146/4
f 106/141/3 102/147/3 100/148/3 104/143/3
f 107/149/1 108/150/1 110/151/1 109/152/1
f 109/152/5 110/151/5 114/153/5 113/154/5
f 113/154/2 114/153/2 112/155/2 111/156/2
f 111/156/4 112/155/4 108/157/4 107/158/4
f 114/153/3 110/159/3 108/160/3 112/155/3
f 115/161/1 116/162/1 118/163/1 117/164/1
f 117/164/5 118/163/5 122/165/5 121/166/5
f 121/166/2 122/165/2 120/167/2 119/168/2
f 119/168/4 120/167/4 116/169/4 115/170/4
f 122/165/3 118/171/3 116/172/3 120/167/3
f 123/173/1 124/174/1 126/175/1 125/176/1
f 125/176/5 126/175/5 130/177/5 129/178/5
f 129/178/2 130/177/2 128/179/2 127/180/2
f 127/180/4 128/179/4 124/181/4 123/182/4
f 130/177/3 126/183/3 124/184/3 128/179/3
f 131/185/1 132/186/1 134/187/1 133/188/1
f 133/188/5 134/187/5 138/189/5 137/190/5
f 137/190/2 138/189/2 136/191/2 135/192/2
f 135/192/4 136/191/4 132/193/4 131/194/4
f 138/189/3 134/195/3 132/196/3 136/191/3
f 139/197/1 140/198/1 142/199/1 141/200/1
f 141/200/5 142/199/5 146/201/5 145/202/5
f 145/202/2 146/201/2 144/203/2 143/204/2
f 143/204/4 144/203/4 140/205/4 139/206/4
f 146/201/3 142/207/3 140/208/3 144/203/3
f 147/209/1 148/210/1 150/211/1 149/212/1
f 149/212/5 150/211/5 154/213/5 153/214/5
f 153/214/2 154/213/2 152/215/2 151/216/2
f 151/216/4 152/215/4 148/217/4 147/218/4
f 154/213/3 150/219/3 148/220/3 152/215/3
f 155/221/1 156/222/1 158/223/1 157/224/1
f 157/224/5 158/223/5 162/225/5 161/226/5
f 161/226/2 162/225/2 160/227/2 159/228/2
f 159/228/4 160/227/4 156/229/4 155/230/4
f 162/225/3 158/231/3 156/232/3 160/227/3
f 163/233/3 167/234/3 169/235/3 165/236/3
f 166/237/4 165/236/4 169/238/4 170/239/4
f 164/240/2 163/233/2 165/236/2 166/237/2
f 168/241/5 167/242/5 163/233/5 164/240/5
f 170/243/1 169/244/1 167/242/1 168/241/1
f 171/245/3 175/246/3 177/247/3 173/248/3
f 174/249/4 173/248/4 177/250/4 178/251/4
f 172/252/2 171/245/2 173/248/2 174/249/2
f 176/253/5 175/254/5 171/245/5 172/252/5
f 178/255/1 177/256/1 175/254/1 176/253/1
f 179/257/3 183/258/3 185/259/3 181/260/3
f 182/261/4 181/260/4 185/262/4 186/263/4
f 180/264/2 179/257/2 181/260/2 182/261/2
f 184/265/5 183/266/5 179/257/5 180/264/5
f 186/267/1 185/268/1 183/266/1 184/265/1
f 187/269/3 191/270/3 193/271/3 189/272/3
f 190/273/4 189/272/4 193/274/4 194/275/4
f 188/276/2 187/269/2 189/272/2 190/273/2
f 192/277/5 191/278/5 187/269/5 188/276/5
f 194/279/1 193/280/1 191/278/1 192/277/1
f 195/281/3 199/282/3 201/283/3 197/284/3
f 198/285/4 197/284/4 201/286/4 202/287/4
f 196/288/2 195/281/2 197/284/2 198/285/2
f 200/289/5 199/290/5 195/281/5 196/288/5
f 202/291/1 201/292/1 199/290/1 200/289/1
f 203/293/3 207/294/3 209/295/3 205/296/3
f 206/297/4 205/296/4 209/298/4 210/299/4
f 204/300/2 203/293/2 205/296/2 206/297/2
f 208/301/5 207/302/5 203/293/5 204/300/5
f 210/303/1 209/304/1 207/302/1 208/301/1
f 211/305/3 215/306/3 217/307/3 213/308/3
f 214/309/4 213/308/4 217/310/4 218/311/4
f 212/312/2 211/305/2 213/308/2 214/309/2
f 216/313/5 215/314/5 211/305/5 212/312/5
f 218/315/1 217/316/1 215/314/1 216/313/1
f 219/317/3 223/318/3 225/319/3 221/320/3
f 222/321/4 221/320/4 225/322/4 226/323/4
f 220/324/2 219/317/2 221/320/2 222/321/2
f 224/325/5 223/326/5 219/317/5 220/324/5
f 226/327/1 225/328/1 223/326/1 224/325/1
f 227/329/3 231/330/3 233/331/3 229/332/3
f 230/333/4 229/332/4 233/334/4 234/335/4
f 228/336/2 227/329/2 229/332/2 230/333/2
f 232/337/5 231/338/5 227/329/5 228/336/5
f 234/339/1 233/340/1 231/338/1 232/337/1
f 250/25/47 246/24/47 249/341/48 252/342/48
f 252/342/48 249/341/48 248/343/49 253/344/49
f 253/344/49 248/343/49 247/345/50 254/346/50
f 254/346/50 247/345/50 245/38/51 251/37/51
f 235/29/52 241/28/52 244/347/53 237/348/53
f 237/348/53 244/347/53 243/349/54 238/350/54
f 238/350/54 243/349/54 242/351/55 239/352/55
f 239/352/55 242/351/55 240/353/56 236/354/56
f 14/31/1 13/30/1 236/354/1 240/353/1
f 260/68/57 256/67/57 259/355/58 262/356/58
f 262/356/58 259/355/58 258/357/59 263/358/59
f 263/358/59 258/357/59 257/359/60 264/360/60
f 264/360/60 257/359/60 255/62/61 261/61/61
f 270/60/57 266/59/57 269/361/58 272/362/58
f 272/362/58 269/361/58 268/363/59 273/364/59
f 273/364/59 268/363/59 267/365/60 274/366/60
f 274/366/60 267/365/60 265/70/61 271/69/61
f 280/68/57 276/67/57 279/355/58 282/356/58
f 282/356/58 279/355/58 278/357/59 283/358/59
f 283/358/59 278/357/59 277/359/60 284/360/60
f 284/360/60 277/359/60 275/77/61 281/61/61
f 290/76/57 286/75/57 289/367/58 292/368/58
f 292/368/58 289/367/58 288/369/59 293/370/59
f 293/370/59 288/369/59 287/371/60 294/372/60
f 294/372/60 287/371/60 285/85/61 291/84/61
f 300/83/57 296/75/57 299/367/58 302/373/58
f 302/373/58 299/367/58 298/369/59 303/374/59
f 303/374/59 298/369/59 297/371/60 304/375/60
f 304/375/60 297/371/60 295/90/61 301/89/61
f 28/53/4 27/56/4 256/67/4 260/68/4
s 0
f 305/376/4 306/377/4 308/378/4 307/379/4
