<?xml version="1.0" encoding="utf-8"?>
<COLLADA xmlns="http://www.collada.org/2005/11/COLLADASchema" version="1.4.1" xmlns:xsi="http://www.w3.org/2001/XMLSchema-instance">
  <asset>
    <contributor>
      <author>Blender User</author>
      <authoring_tool>Blender 4.0.2 commit date:2023-12-05, commit time:07:41, hash:9be62e85b727</authoring_tool>
    </contributor>
    <created>2026-04-28T21:39:05</created>
    <modified>2026-04-28T21:39:05</modified>
    <unit name="meter" meter="1"/>
    <up_axis>Z_UP</up_axis>
  </asset>
  <library_effects>
    <effect id="Fridge-effect">
      <profile_COMMON>
        <technique sid="common">
          <lambert>
            <emission>
              <color sid="emission">0 0 0 1</color>
            </emission>
            <diffuse>
              <color sid="diffuse">0.8 0.8 0.8 1</color>
            </diffuse>
            <index_of_refraction>
              <float sid="ior">1.45</float>
            </index_of_refraction>
          </lambert>
        </technique>
      </profile_COMMON>
    </effect>
    <effect id="Glass-effect">
      <profile_COMMON>
        <technique sid="common">
          <lambert>
            <emission>
              <color sid="emission">0 0 0 1</color>
            </emission>
            <diffuse>
              <color sid="diffuse">0.8 0.8 0.8 1</color>
            </diffuse>
            <index_of_refraction>
              <float sid="ior">1.45</float>
            </index_of_refraction>
          </lambert>
        </technique>
      </profile_COMMON>
    </effect>
  </library_effects>
  <library_images/>
  <library_materials>
    <material id="Fridge-material" name="Fridge">
      <instance_effect url="#Fridge-effect"/>
    </material>
    <material id="Glass-material" name="Glass">
      <instance_effect url="#Glass-effect"/>
    </material>
  </library_materials>
  <library_geometries>
    <geometry id="Cube_001-mesh" name="Cube.001">
      <mesh>
        <source id="Cube_001-mesh-positions">
          <float_array id="Cube_001-mesh-positions-array" count="924">-0.21 -0.126 0 -0.21 -0.126 0.84 -0.21 0.21 0 -0.21 0.21 0.84 0.21 -0.126 0 0.21 -0.126 0.84 0.21 0.21 0 0.21 0.21 0.84 -0.1977674 -0.168 0.04673194 -0.1977674 -0.168 0.7948664 0.1977674 -0.168 0.7948664 0.1977674 -0.168 0.04673194 -0.2225999 -0.126 0 -0.2225999 -0.126 0.84 0.2225999 -0.126 0.84 0.2225999 -0.126 0 -0.21 -0.168 0 -0.21 -0.168 0.84 0.21 -0.168 0.84 0.21 -0.168 0 -0.1977674 0.1884002 0.04673194 -0.1977674 0.1884002 0.7948664 0.1977674 0.1884002 0.7948664 0.1977674 0.1884002 0.04673194 0.1977674 0.1884002 0.1469544 -0.1977674 0.1884002 0.1469544 0.1977674 -0.1155254 0.1469544 -0.1977674 -0.1155254 0.1469544 0.1977674 0.1884002 0.1543926 -0.1977674 0.1884002 0.1543926 0.1977674 0.1884002 0.2729544 -0.1977674 0.1884002 0.2729544 0.1977674 -0.1155254 0.2729544 -0.1977674 -0.1155254 0.2729544 0.1977674 0.1884002 0.2803926 -0.1977674 0.1884002 0.2803926 0.1977674 0.1884002 0.3989544 -0.1977674 0.1884002 0.3989544 0.1977674 -0.1155254 0.3989544 -0.1977674 -0.1155254 0.3989544 0.1977674 0.1884002 0.4063926 -0.1977674 0.1884002 0.4063926 0.1977674 0.1884002 0.5249544 -0.1977674 0.1884002 0.5249544 0.1977674 -0.1155254 0.5249544 -0.1977674 -0.1155254 0.5249544 0.1977674 0.1884002 0.5323927 -0.1977674 0.1884002 0.5323927 0.1977674 0.1884002 0.6509544 -0.1977674 0.1884002 0.6509544 0.1977674 -0.1155254 0.6509544 -0.1977674 -0.1155254 0.6509544 0.1977674 0.1884002 0.6583927 -0.1977674 0.1884002 0.6583927 0.2659708 0.2049908 0.3582 0.2659708 0.2049908 0.3350299 0.3178108 0.2049908 0.3582 0.3178108 0.2049908 0.3350299 0.259622 0.2049908 0.3582 0.259622 0.2049908 0.001799941 0.3241597 0.2049908 0.3582 0.3241597 0.2049908 0.001799941 0.271543 -0.1602007 0.3350299 0.2598958 -0.1373816 0.3350299 0.2655712 -0.1571435 0.3350299 0.261308 -0.1487911 0.3350299 0.2598958 -0.1373816 0.3582 0.271543 -0.1602007 0.3582 0.261308 -0.1487911 0.3582 0.2655712 -0.1571435 0.3582 0.3238859 -0.1373816 0.3350299 0.3122386 -0.1602007 0.3350299 0.3224737 -0.1487911 0.3350299 0.3182105 -0.1571435 0.3350299 0.3122386 -0.1602007 0.3582 0.3238859 -0.1373816 0.3582 0.3182105 -0.1571435 0.3582 0.3224737 -0.1487911 0.3582 0.2535257 -0.1565945 0.001799941 0.2651941 -0.1793558 0.001799941 0.2549485 -0.1679751 0.001799941 0.2592195 -0.1763064 0.001799941 0.2651941 -0.1793558 0.3582 0.2535257 -0.1565945 0.3582 0.2592195 -0.1763064 0.3582 0.2549485 -0.1679751 0.3582 0.3302559 -0.1565945 0.001799941 0.3185876 -0.1793558 0.001799941 0.3288331 -0.1679751 0.001799941 0.3245622 -0.1763064 0.001799941 0.3302559 -0.1565945 0.3582 0.3185876 -0.1793558 0.3582 0.3288331 -0.1679751 0.3582 0.3245622 -0.1763064 0.3582 0.2586407 -0.1624498 0.3442108 0.3257544 -0.1624498 0.3442108 0.266264 0.1862229 0.3442108 0.318131 0.1862229 0.3442108 0.2718315 -0.08411359 0.3410106 0.2718315 -0.08411359 0.3614468 0.2718315 -0.05962032 0.3410106 0.2718315 -0.05962032 0.3614468 0.2730681 -0.08411359 0.3410106 0.2730681 -0.08411359 0.3614468 0.2730681 -0.05962032 0.3410106 0.2730681 -0.05962032 0.3614468 0.2768795 0.03368794 0.3410106 0.2768795 0.03368794 0.3614468 0.2768795 0.05818128 0.3410106 0.2768795 0.05818128 0.3614468 0.2781161 0.03368794 0.3410106 0.2781161 0.03368794 0.3614468 0.2781161 0.05818128 0.3410106 0.2781161 0.05818128 0.3614468 0.273995 -0.04749363 0.3410106 0.273995 -0.04749363 0.3614468 0.273995 -0.02300035 0.3410106 0.273995 -0.02300035 0.3614468 0.2752315 -0.04749363 0.3410106 0.2752315 -0.04749363 0.3614468 0.2752315 -0.02300035 0.3410106 0.2752315 -0.02300035 0.3614468 0.2760142 -0.003373146 0.3410106 0.2760142 -0.003373146 0.3614468 0.2760142 0.02112007 0.3410106 0.2760142 0.02112007 0.3614468 0.2772507 -0.003373146 0.3410106 0.2772507 -0.003373146 0.3614468 0.2772507 0.02112007 0.3410106 0.2772507 0.02112007 0.3614468 0.278079 0.06942552 0.3410106 0.278079 0.06942552 0.3614468 0.278079 0.0939188 0.3410106 0.278079 0.0939188 0.3614468 0.2793156 0.06942552 0.3410106 0.2793156 0.06942552 0.3614468 0.2793156 0.0939188 0.3410106 0.2793156 0.0939188 0.3614468 0.2808194 0.1113399 0.3410106 0.2808194 0.1113399 0.3614468 0.2808194 0.1358333 0.3410106 0.2808194 0.1358333 0.3614468 0.2820559 0.1113399 0.3410106 0.2820559 0.1113399 0.3614468 0.2820559 0.1358333 0.3410106 0.2820559 0.1358333 0.3614468 0.2837039 0.1448715 0.3410106 0.2837039 0.1448715 0.3614468 0.2837039 0.1693648 0.3410106 0.2837039 0.1693648 0.3614468 0.2849405 0.1448715 0.3410106 0.2849405 0.1448715 0.3614468 0.2849405 0.1693648 0.3410106 0.2849405 0.1693648 0.3614468 0.2690912 -0.1207336 0.3410106 0.2690912 -0.1207336 0.3614468 0.2690912 -0.09624028 0.3410106 0.2690912 -0.09624028 0.3614468 0.2703278 -0.1207336 0.3410106 0.2703278 -0.1207336 0.3614468 0.2703278 -0.09624028 0.3410106 0.2703278 -0.09624028 0.3614468 0.2992355 -0.04064857 0.3614468 0.2992355 -0.04064857 0.3410106 0.2992355 -0.06514185 0.3614468 0.2992355 -0.06514185 0.3410106 0.2979989 -0.04064857 0.3614468 0.2979989 -0.04064857 0.3410106 0.2979989 -0.06514185 0.3614468 0.2979989 -0.06514185 0.3410106 0.296351 -0.07418012 0.3614468 0.296351 -0.07418012 0.3410106 0.296351 -0.0986734 0.3614468 0.296351 -0.0986734 0.3410106 0.2951144 -0.07418012 0.3614468 0.2951144 -0.07418012 0.3410106 0.2951144 -0.0986734 0.3614468 0.2951144 -0.0986734 0.3410106 0.2936106 -0.1160945 0.3614468 0.2936106 -0.1160945 0.3410106 0.2936106 -0.1405878 0.3614468 0.2936106 -0.1405878 0.3410106 0.2923741 -0.1160945 0.3614468 0.2923741 -0.1160945 0.3410106 0.2923741 -0.1405878 0.3614468 0.2923741 -0.1405878 0.3410106 0.3074419 0.07274097 0.3614468 0.3074419 0.07274097 0.3410106 0.3074419 0.04824769 0.3614468 0.3074419 0.04824769 0.3410106 0.3062053 0.07274097 0.3614468 0.3062053 0.07274097 0.3410106 0.3062053 0.04824769 0.3614468 0.3062053 0.04824769 0.3410106 0.3045573 0.03920942 0.3614468 0.3045573 0.03920942 0.3410106 0.3045573 0.01471614 0.3614468 0.3045573 0.01471614 0.3410106 0.3033208 0.03920942 0.3614468 0.3033208 0.03920942 0.3410106 0.3033208 0.01471614 0.3614468 0.3033208 0.01471614 0.3410106 0.301817 -0.002704918 0.3614468 0.301817 -0.002704918 0.3410106 0.301817 -0.02719825 0.3614468 0.301817 -0.02719825 0.3410106 0.3005805 -0.002704918 0.3614468 0.3005805 -0.002704918 0.3410106 0.3005805 -0.02719825 0.3614468 0.3005805 -0.02719825 0.3410106 0.3148542 0.1781889 0.3614468 0.3148542 0.1781889 0.3410106 0.3148542 0.1536956 0.3614468 0.3148542 0.1536956 0.3410106 0.3136176 0.1781889 0.3614468 0.3136176 0.1781889 0.3410106 0.3136176 0.1536956 0.3614468 0.3136176 0.1536956 0.3410106 0.3119696 0.1446574 0.3614468 0.3119696 0.1446574 0.3410106 0.3119696 0.120164 0.3614468 0.3119696 0.120164 0.3410106 0.310733 0.1446574 0.3614468 0.310733 0.1446574 0.3410106 0.310733 0.120164 0.3614468 0.310733 0.120164 0.3410106 0.3092293 0.1027429 0.3614468 0.3092293 0.1027429 0.3410106 0.3092293 0.07824963 0.3614468 0.3092293 0.07824963 0.3410106 0.3079927 0.1027429 0.3614468 0.3079927 0.1027429 0.3410106 0.3079927 0.07824963 0.3614468 0.3079927 0.07824963 0.3410106 -0.2161849 -0.168 0 -0.2225999 -0.1615849 0 -0.2186399 -0.1675117 0 -0.220721 -0.1661211 0 -0.2221117 -0.1640399 0 -0.2225999 -0.1615849 0.84 -0.2161849 -0.168 0.84 -0.2221117 -0.1640399 0.84 -0.220721 -0.1661211 0.84 -0.2186399 -0.1675117 0.84 0.2161849 -0.168 0.84 0.2225999 -0.1615849 0.84 0.2186399 -0.1675117 0.84 0.220721 -0.1661211 0.84 0.2221117 -0.1640399 0.84 0.2225999 -0.1615849 0 0.2161849 -0.168 0 0.2221117 -0.1640399 0 0.220721 -0.1661211 0 0.2186399 -0.1675117 0 0.1977674 -0.1122702 0.1543926 0.1977674 -0.1155254 0.1511374 0.1977674 -0.113516 0.1541448 0.1977674 -0.114572 0.1534392 0.1977674 -0.1152776 0.1523832 -0.1977674 -0.1155254 0.1511374 -0.1977674 -0.1122702 0.1543926 -0.1977674 -0.1152776 0.1523832 -0.1977674 -0.114572 0.1534392 -0.1977674 -0.113516 0.1541448 0.1977674 -0.1122702 0.2803926 0.1977674 -0.1155254 0.2771375 0.1977674 -0.113516 0.2801448 0.1977674 -0.114572 0.2794392 0.1977674 -0.1152776 0.2783831 -0.1977674 -0.1155254 0.2771375 -0.1977674 -0.1122702 0.2803926 -0.1977674 -0.1152776 0.2783831 -0.1977674 -0.114572 0.2794392 -0.1977674 -0.113516 0.2801448 0.1977674 -0.1122702 0.4063926 0.1977674 -0.1155254 0.4031375 0.1977674 -0.113516 0.4061449 0.1977674 -0.114572 0.4054392 0.1977674 -0.1152776 0.4043832 -0.1977674 -0.1155254 0.4031375 -0.1977674 -0.1122702 0.4063926 -0.1977674 -0.1152776 0.4043832 -0.1977674 -0.114572 0.4054392 -0.1977674 -0.113516 0.4061449 0.1977674 -0.1122702 0.5323927 0.1977674 -0.1155254 0.5291376 0.1977674 -0.113516 0.5321449 0.1977674 -0.114572 0.5314393 0.1977674 -0.1152776 0.5303832 -0.1977674 -0.1155254 0.5291376 -0.1977674 -0.1122702 0.5323927 -0.1977674 -0.1152776 0.5303832 -0.1977674 -0.114572 0.5314393 -0.1977674 -0.113516 0.5321449 0.1977674 -0.1122702 0.6583927 0.1977674 -0.1155254 0.6551375 0.1977674 -0.113516 0.6581449 0.1977674 -0.114572 0.6574393 0.1977674 -0.1152776 0.6563832 -0.1977674 -0.1155254 0.6551375 -0.1977674 -0.1122702 0.6583927 -0.1977674 -0.1152776 0.6563832 -0.1977674 -0.114572 0.6574393 -0.1977674 -0.113516 0.6581449 -0.2010644 -0.1567107 0.04445093 0.2010644 -0.1567107 0.04445093 -0.2010644 -0.1567109 0.8001601 0.2010644 -0.1567109 0.8001601</float_array>
          <technique_common>
            <accessor source="#Cube_001-mesh-positions-array" count="308" stride="3">
              <param name="X" type="float"/>
              <param name="Y" type="float"/>
              <param name="Z" type="float"/>
            </accessor>
          </technique_common>
        </source>
        <source id="Cube_001-mesh-normals">
          <float_array id="Cube_001-mesh-normals-array" count="303">-1 0 0 1 0 0 0 0 1 -1.23226e-6 0 1 -2.54179e-7 0 1 -2.03329e-6 0 1 0 -1 -1.78731e-7 0 -1 0 0 1 0 6.32751e-5 0 1 1.47643e-5 0 1 -8.02643e-6 0 1 0 -1 1.73308e-7 0 -1 0 0 -1 1.75791e-7 0 -1 0 0 -1 -1.82879e-7 0 0 -1 0.9998579 0.01685738 0 0.7212725 -0.03881245 0.6915632 0.9985555 -0.05373185 0 -0.1760267 -0.7320861 0.6580765 0.2337837 -0.9722887 0 0.1760256 -0.7320855 0.6580774 -0.1512598 0.627408 0.7638584 -0.7032222 0.01185619 0.7108713 -0.9985553 -0.05373358 0 -0.7212705 -0.03880995 0.6915654 -0.6895766 0.03637641 0.7232987 -0.9998427 -0.01774132 0 -0.9986116 0.05267864 0 0.7032223 0.01185607 0.7108712 0.1512603 0.6274077 0.7638586 -0.2343713 0.9721472 0 0.2343724 0.9721469 0 0.6895756 0.03637713 0.7232996 0.7109997 -0.01261597 0.7030792 0.4397688 0.4392405 0.7833718 0.7075294 0.7066839 0 0.6341819 0.1944723 0.7483274 0.9560568 0.2931816 0 -0.6341828 0.1944735 0.7483264 -0.956058 0.2931777 0 -0.4397672 0.4392425 0.7833715 -0.7075291 0.7066842 0 -0.7064776 -0.7077354 0 -0.2337833 -0.9722889 0 -0.5404744 -0.5414371 0.643998 -0.9556185 -0.2946073 0 -0.7094117 -0.2187013 0.6700036 0.540475 -0.5414371 0.6439975 0.7064784 -0.7077346 0 0.7094117 -0.2187024 0.6700032 0.955619 -0.2946053 0 0.9986113 0.05268204 0 0.9807873 -0.1950802 0 0.9238805 -0.382681 0 0.9238824 -0.3826768 0 0.7071046 -0.7071091 0 0.7071077 -0.7071059 0 0.3826812 -0.9238805 0 0.3826801 -0.9238811 0 0.1950857 -0.9807862 0 -0.1950857 -0.9807862 0 -0.3826801 -0.9238811 0 -0.3826812 -0.9238805 0 -0.7071077 -0.7071059 0 -0.7071046 -0.7071091 0 -0.9238824 -0.3826768 0 -0.9238805 -0.382681 0 -0.9807873 -0.1950802 0 0 -0.9807866 0.195084 0 -0.9238787 0.3826856 0 -0.9807837 0.1950982 0 -0.9238834 0.3826743 0 -0.7071061 0.7071075 0 -0.7071125 0.7071011 0 -0.3826737 0.9238836 0 -0.3826764 0.9238825 0 -0.1950739 0.9807887 0 -0.9807857 0.1950885 0 -0.9238778 0.3826877 0 -0.9807828 0.1951027 0 -0.9238826 0.3826764 0 -0.382679 0.9238814 0 -0.3826817 0.9238803 0 -0.1950851 0.9807863 0 -0.9238803 0.3826817 0 -0.9238849 0.3826704 0 -0.7071037 0.7071098 0 -0.7071102 0.7071034 0 -0.38267 0.9238851 0 -0.3826727 0.923884 0 -1 -2.45172e-7 -1.9422e-4 0 1 -1.3873e-5 0 1 -0.9998579 0.0168575 0 -0.7109995 -0.01261603 0.7030794 0.9998427 -0.0177412 0 0 -0.1950738 0.9807887 0 -0.1950851 0.9807864</float_array>
          <technique_common>
            <accessor source="#Cube_001-mesh-normals-array" count="101" stride="3">
              <param name="X" type="float"/>
              <param name="Y" type="float"/>
              <param name="Z" type="float"/>
            </accessor>
          </technique_common>
        </source>
        <source id="Cube_001-mesh-map-0">
          <float_array id="Cube_001-mesh-map-0-array" count="2184">0.001499533 0.174248 0.4333703 0.001499772 0.4333703 0.174248 0.001499712 0.9985048 0.4333705 0.8257564 0.4333705 0.9985048 0.5718093 0.325496 0.5917423 0.5248268 0.5718093 0.5248268 0.4123446 0.325496 0.5718093 0.5248268 0.4123446 0.5248267 0.02470415 0.7849176 0.4093442 0.6016809 0.4093441 0.7849177 0.958247 0.001547455 0.958247 0.001547455 0.958247 0.001547455 0.001499652 0.8192784 0.4333705 0.8009831 0.4333705 0.8192784 0.001499593 0.2087976 0.4333703 0.2056178 0.4333703 0.2087976 0.4333703 0.174248 0.001499593 0.1807261 0.001499533 0.174248 0.9551467 0.001545727 0.9551466 0.001545727 0.9551466 0.001545727 0.4333705 0.7912068 0.001499772 0.7943866 0.001499712 0.7912068 0.001499712 0.8257564 0.4333705 0.8192784 0.4333705 0.8257564 0.4093441 0.2150868 0.001499593 0.2087976 0.4333703 0.2087976 0.4093441 0.7849177 0.001499712 0.7912068 0.02470415 0.7849176 0.6247601 0.5491974 0.6524837 0.7911041 0.6247601 0.7838472 0.6131626 0.5190213 0.5917423 0.325496 0.6131626 0.3313015 0.02470427 0.6016808 0.4093441 0.3983237 0.4093442 0.6016809 0.6247601 0.7838472 0.4133269 0.5491974 0.6247601 0.5491974 0.4093441 0.2150868 0.02470421 0.3983236 0.02470421 0.2150868 0.6131626 0.3313015 0.7823091 0.5190213 0.6131626 0.5190213 0.4363656 0.3217717 0.6824539 0.00150752 0.6824539 0.3217718 0.6824539 0.001502573 0.685841 0.3217668 0.6824539 0.3217668 0.6911124 0.00150752 0.934565 0.3217718 0.6911124 0.3217718 0.4363656 0.3217667 0.6824539 0.001502573 0.6824539 0.3217668 0.6824539 0.00150752 0.685841 0.3217718 0.6824539 0.3217718 0.6911124 0.001502573 0.934565 0.3217668 0.6911124 0.3217668 0.4363656 0.3217717 0.6824539 0.00150752 0.6824539 0.3217718 0.6824539 0.001502335 0.685841 0.3217666 0.6824539 0.3217666 0.6911123 0.00150752 0.9345648 0.3217718 0.6911124 0.3217718 0.4363656 0.3217665 0.6824539 0.001502335 0.6824539 0.3217666 0.6824539 0.001502335 0.685841 0.3217666 0.6824539 0.3217666 0.6911123 0.001502335 0.9345648 0.3217666 0.6911124 0.3217666 0.4363656 0.3217665 0.6824539 0.001502335 0.6824539 0.3217666 0.6911124 0.001502335 0.934565 0.3217666 0.6911124 0.3217666 0.9717145 0.9816019 0.8342168 0.7619777 0.9816757 0.7655496 0.8369575 0.7325772 0.9818612 0.7534816 0.836852 0.75126 0.827396 0.7538593 0.8369575 0.7325772 0.836852 0.75126 0.7596003 0.5233904 0.9806835 0.7156978 0.834428 0.7224497 0.8262164 0.7716143 0.7435778 0.94377 0.8128814 0.7690658 0.7584019 0.9496125 0.8262164 0.7716143 0.8342168 0.7619777 0.8281985 0.7305349 0.8139429 0.7540808 0.8146548 0.7308969 0.7596003 0.5233904 0.8266533 0.7128454 0.7561715 0.5246036 0.8146548 0.7308969 0.8285952 0.7263875 0.8281985 0.7305349 0.8145021 0.7273036 0.8281821 0.7202533 0.8285952 0.7263875 0.8139724 0.7221338 0.8266533 0.7128454 0.8281821 0.7202533 0.8128814 0.7690658 0.8277903 0.764221 0.8262164 0.7716143 0.8136551 0.7629011 0.8280791 0.7580341 0.8277903 0.764221 0.8139047 0.7578182 0.827396 0.7538593 0.8280791 0.7580341 0.8369575 0.7325772 0.9810316 0.724983 0.9811336 0.7279503 0.8370533 0.7301972 0.9808759 0.720712 0.9810316 0.724983 0.8362414 0.7270261 0.9806835 0.7156978 0.9808759 0.720712 0.9818612 0.7534816 0.8369649 0.7537879 0.836852 0.75126 0.9818175 0.7565456 0.8361267 0.7571825 0.8369649 0.7537879 0.9817547 0.7606509 0.8342168 0.7619777 0.8361267 0.7571825 0.827396 0.7538593 0.8369649 0.7537879 0.8280791 0.7580341 0.8280791 0.7580341 0.8361267 0.7571825 0.8277903 0.764221 0.8277903 0.764221 0.8342168 0.7619777 0.8262164 0.7716143 0.834428 0.7224497 0.8281821 0.7202533 0.8266533 0.7128454 0.8362414 0.7270261 0.8285952 0.7263875 0.8281821 0.7202533 0.8370533 0.7301972 0.8281985 0.7305349 0.8285952 0.7263875 0.8128625 0.7156827 0.7561715 0.5246036 0.8266533 0.7128454 0.9801406 0.2265722 0.9424222 0.00550419 0.9753073 0.00550419 0.962498 0.2315087 0.9375683 0.2564385 0.9375683 0.2315087 0.962498 0.2564385 0.9375683 0.2813681 0.9375683 0.2564385 0.962498 0.2813681 0.9375683 0.3062979 0.9375683 0.2813681 0.962498 0.3062979 0.9375683 0.3312276 0.9375683 0.3062979 0.9874278 0.2813681 0.962498 0.3062979 0.962498 0.2813681 0.9624905 0.2315182 0.9375607 0.256448 0.9375607 0.2315182 0.9624905 0.256448 0.9375607 0.2813776 0.9375607 0.256448 0.9624905 0.2813776 0.9375607 0.3063074 0.9375607 0.2813776 0.9624905 0.3063074 0.9375607 0.3312371 0.9375607 0.3063074 0.9874202 0.2813776 0.9624905 0.3063074 0.9624905 0.2813776 0.962498 0.2315151 0.9375683 0.2564449 0.9375683 0.2315151 0.962498 0.2564449 0.9375683 0.2813745 0.9375683 0.2564449 0.962498 0.2813745 0.9375683 0.3063045 0.9375683 0.2813745 0.962498 0.3063045 0.9375683 0.331234 0.9375683 0.3063045 0.9874278 0.2813745 0.962498 0.3063045 0.962498 0.2813745 0.9624905 0.2315117 0.9375607 0.2564414 0.9375607 0.2315117 0.9624905 0.2564414 0.9375607 0.2813712 0.9375607 0.2564414 0.9624905 0.2813712 0.9375607 0.3063009 0.9375607 0.2813712 0.9624905 0.3063009 0.9375607 0.3312307 0.9375607 0.3063009 0.9874202 0.2813712 0.9624905 0.3063009 0.9624905 0.2813712 0.962498 0.2315099 0.9375683 0.2564398 0.9375683 0.2315099 0.962498 0.2564398 0.9375683 0.2813694 0.9375683 0.2564398 0.962498 0.2813694 0.9375683 0.3062991 0.9375683 0.2813694 0.962498 0.3062991 0.9375683 0.3312289 0.9375683 0.3062991 0.9874278 0.2813694 0.962498 0.3062991 0.962498 0.2813694 0.9624905 0.2315052 0.9375607 0.256435 0.9375607 0.2315052 0.9624905 0.256435 0.9375607 0.2813646 0.9375607 0.256435 0.9624905 0.2813646 0.9375607 0.3062946 0.9375607 0.2813646 0.9624905 0.3062946 0.9375607 0.3312243 0.9375607 0.3062946 0.9874202 0.2813646 0.9624905 0.3062946 0.9624905 0.2813646 0.962498 0.2315046 0.9375683 0.2564345 0.9375683 0.2315046 0.962498 0.2564345 0.9375683 0.2813641 0.9375683 0.2564345 0.962498 0.2813641 0.9375683 0.3062938 0.9375683 0.2813641 0.962498 0.3062938 0.9375683 0.3312236 0.9375683 0.3062938 0.9874278 0.2813641 0.962498 0.3062938 0.962498 0.2813641 0.9624905 0.2315105 0.9375607 0.2564404 0.9375607 0.2315105 0.9624905 0.2564404 0.9375607 0.2813699 0.9375607 0.2564404 0.9624905 0.2813699 0.9375607 0.3062997 0.9375607 0.2813699 0.9624905 0.3062997 0.9375607 0.3312295 0.9375607 0.3062997 0.9874202 0.2813699 0.9624905 0.3062997 0.9624905 0.2813699 0.9874278 0.2813706 0.962498 0.3063004 0.962498 0.2813706 0.962498 0.3063004 0.9375683 0.3312301 0.9375683 0.3063004 0.962498 0.2813706 0.9375683 0.3063004 0.9375683 0.2813706 0.962498 0.2564409 0.9375683 0.2813706 0.9375683 0.2564409 0.962498 0.2315111 0.9375683 0.2564409 0.9375683 0.2315111 0.9874254 0.2813653 0.9624957 0.306295 0.9624957 0.2813653 0.9624957 0.306295 0.9375659 0.3312249 0.9375659 0.306295 0.9624957 0.2813653 0.9375659 0.306295 0.9375659 0.2813653 0.9624957 0.2564356 0.9375659 0.2813653 0.9375659 0.2564356 0.9624957 0.2315058 0.9375659 0.2564356 0.9375659 0.2315058 0.9874225 0.2813763 0.9624927 0.3063061 0.9624927 0.2813763 0.9624927 0.3063061 0.9375628 0.3312359 0.937563 0.3063061 0.9624927 0.2813763 0.937563 0.3063061 0.937563 0.2813763 0.9624927 0.2564468 0.937563 0.2813763 0.937563 0.2564468 0.9624927 0.231517 0.937563 0.2564468 0.937563 0.231517 0.9874243 0.2813758 0.9624946 0.3063055 0.9624946 0.2813758 0.9624946 0.3063055 0.9375648 0.3312353 0.9375648 0.3063055 0.9624946 0.2813758 0.9375648 0.3063055 0.9375648 0.2813758 0.9624946 0.256446 0.9375648 0.2813758 0.9375648 0.256446 0.9624946 0.2315164 0.9375648 0.256446 0.9375648 0.2315164 0.9874266 0.2813678 0.9624971 0.3062974 0.9624971 0.2813678 0.9624971 0.3062974 0.9375672 0.3312273 0.9375672 0.3062974 0.9624971 0.2813678 0.9375672 0.3062974 0.9375672 0.2813678 0.9624971 0.2564381 0.9375672 0.2813678 0.9375672 0.2564381 0.9624971 0.2315083 0.9375672 0.2564381 0.9375672 0.2315083 0.987419 0.2813675 0.9624893 0.3062972 0.9624893 0.2813675 0.9624893 0.3062972 0.9375595 0.3312271 0.9375595 0.3062972 0.9624893 0.2813675 0.9375595 0.3062972 0.9375595 0.2813675 0.9624893 0.2564378 0.9375595 0.2813675 0.9375595 0.2564378 0.9624893 0.231508 0.9375595 0.2564378 0.9375595 0.231508 0.9874229 0.2813774 0.9624931 0.3063072 0.9624931 0.2813774 0.9624931 0.3063072 0.9375634 0.331237 0.9375634 0.3063072 0.9624931 0.2813774 0.9375634 0.3063072 0.9375634 0.2813774 0.9624931 0.2564479 0.9375634 0.2813774 0.9375634 0.2564479 0.9624931 0.231518 0.9375634 0.2564479 0.9375634 0.231518 0.9874246 0.281367 0.9624948 0.3062967 0.9624948 0.281367 0.9624948 0.3062967 0.9375651 0.3312265 0.9375651 0.3062967 0.9624948 0.281367 0.9375651 0.3062967 0.9375651 0.281367 0.9624948 0.2564373 0.9375651 0.281367 0.9375651 0.2564373 0.9624948 0.2315075 0.9375651 0.2564373 0.9375651 0.2315075 0.9874212 0.281378 0.9624915 0.3063077 0.9624915 0.281378 0.9624915 0.3063077 0.9375617 0.3312375 0.9375617 0.3063077 0.9624915 0.281378 0.9375617 0.3063077 0.9375617 0.281378 0.9624915 0.2564484 0.9375617 0.281378 0.9375617 0.2564484 0.9624915 0.2315186 0.9375617 0.2564484 0.9375617 0.2315186 0.001499772 0.800983 0.4333705 0.7997209 0.4333705 0.8009831 0.001499772 0.7997208 0.4333705 0.7976849 0.4333705 0.7997209 0.001499772 0.7976848 0.4333705 0.7956488 0.4333705 0.7976849 0.001499772 0.7956488 0.4333705 0.7943866 0.4333705 0.7956488 0.001499593 0.2056178 0.4333703 0.2043556 0.4333703 0.2056178 0.001499533 0.2043556 0.4333703 0.2023196 0.4333703 0.2043556 0.001499533 0.2023196 0.4333703 0.2002836 0.4333703 0.2023196 0.001499533 0.2002835 0.4333703 0.1990214 0.4333703 0.2002836 0.4333703 0.1807261 0.001499533 0.1990213 0.001499593 0.1807261 0.685841 0.00150752 0.6868496 0.3217718 0.685841 0.3217718 0.6868496 0.00150752 0.6884767 0.3217718 0.6868496 0.3217718 0.6884767 0.00150752 0.6901038 0.3217718 0.6884767 0.3217718 0.6901038 0.00150752 0.6911124 0.3217718 0.6901038 0.3217718 0.685841 0.001502573 0.6868496 0.3217668 0.685841 0.3217668 0.6868496 0.001502573 0.6884767 0.3217668 0.6868496 0.3217668 0.6884767 0.001502573 0.6901038 0.3217668 0.6884767 0.3217668 0.6901038 0.001502573 0.6911124 0.3217668 0.6901038 0.3217668 0.685841 0.00150752 0.6868496 0.3217718 0.685841 0.3217718 0.6868496 0.00150752 0.6884767 0.3217718 0.6868496 0.3217718 0.6884767 0.00150752 0.6901038 0.3217718 0.6884767 0.3217718 0.6901038 0.00150752 0.6911124 0.3217718 0.6901038 0.3217718 0.685841 0.001502335 0.6868497 0.3217666 0.685841 0.3217666 0.6868497 0.001502335 0.6884767 0.3217666 0.6868497 0.3217666 0.6884767 0.001502335 0.6901038 0.3217666 0.6884767 0.3217666 0.6901038 0.001502335 0.6911124 0.3217666 0.6901038 0.3217666 0.685841 0.001502335 0.6868497 0.3217666 0.685841 0.3217666 0.6868497 0.001502335 0.6884767 0.3217666 0.6868497 0.3217666 0.6884767 0.001502335 0.6901038 0.3217666 0.6884767 0.3217666 0.6901038 0.001502335 0.6911124 0.3217666 0.6901038 0.3217666 0.6824539 0.00150752 0.685841 0.3217718 0.6824539 0.3217718 1 0 0 1 0 0 0.001499533 0.174248 0.001499533 0.001499712 0.4333703 0.001499772 0.001499712 0.9985048 0.001499712 0.8257564 0.4333705 0.8257564 0.5718093 0.325496 0.5917423 0.325496 0.5917423 0.5248268 0.4123446 0.325496 0.5718093 0.325496 0.5718093 0.5248268 0.02470415 0.7849176 0.02470427 0.6016808 0.4093442 0.6016809 0.958247 0.001547455 0.958247 0.001547455 0.958247 0.001547455 0.958247 0.001547455 0.958247 0.001547455 0.958247 0.001547455 0.958247 0.001547455 0.958247 0.001547455 0.958247 0.001547455 0.958247 0.001547455 0.958247 0.001547455 0.958247 0.001547455 0.958247 0.001547455 0.958247 0.001547455 0.958247 0.001547455 0.001499652 0.8192784 0.001499772 0.800983 0.4333705 0.8009831 0.001499593 0.2087976 0.001499593 0.2056178 0.4333703 0.2056178 0.4333703 0.174248 0.4333703 0.1807261 0.001499593 0.1807261 0.9551466 0.001545727 0.9551466 0.001545727 0.9551466 0.001545727 0.9551466 0.001545727 0.9551466 0.001545727 0.9551466 0.001545727 0.9551466 0.001545727 0.9551466 0.001545727 0.9551466 0.001545727 0.9551466 0.001545727 0.9551466 0.001545727 0.9551467 0.001545727 0.9551467 0.001545727 0.9551467 0.001545727 0.9551466 0.001545727 0.4333705 0.7912068 0.4333705 0.7943866 0.001499772 0.7943866 0.001499712 0.8257564 0.001499652 0.8192784 0.4333705 0.8192784 0.4093441 0.2150868 0.02470421 0.2150868 0.001499593 0.2087976 0.4093441 0.7849177 0.4333705 0.7912068 0.001499712 0.7912068 0.6247601 0.5491974 0.6524837 0.5419406 0.6524837 0.7911041 0.6131626 0.5190213 0.5917423 0.5248268 0.5917423 0.325496 0.02470427 0.6016808 0.02470421 0.3983236 0.4093441 0.3983237 0.6247601 0.7838472 0.4133269 0.7838472 0.4133269 0.5491974 0.4093441 0.2150868 0.4093441 0.3983237 0.02470421 0.3983236 0.6131626 0.3313015 0.7823091 0.3313015 0.7823091 0.5190213 0.4363656 0.3217717 0.4363657 0.00150752 0.6824539 0.00150752 0.6824539 0.001502573 0.685841 0.001502573 0.685841 0.3217668 0.6911124 0.00150752 0.934565 0.00150758 0.934565 0.3217718 0.4363656 0.3217667 0.4363657 0.001502573 0.6824539 0.001502573 0.6824539 0.00150752 0.685841 0.00150752 0.685841 0.3217718 0.6911124 0.001502573 0.934565 0.001502633 0.934565 0.3217668 0.4363656 0.3217717 0.4363657 0.00150752 0.6824539 0.00150752 0.6824539 0.001502335 0.685841 0.001502335 0.685841 0.3217666 0.6911123 0.00150752 0.9345648 0.00150758 0.9345648 0.3217718 0.4363656 0.3217665 0.4363657 0.001502335 0.6824539 0.001502335 0.6824539 0.001502335 0.685841 0.001502335 0.685841 0.3217666 0.6911123 0.001502335 0.9345648 0.001502394 0.9345648 0.3217666 0.4363656 0.3217665 0.4363657 0.001502335 0.6824539 0.001502335 0.6911124 0.001502335 0.934565 0.001502394 0.934565 0.3217666 0.9717145 0.9816019 0.7584019 0.9496125 0.8342168 0.7619777 0.8369575 0.7325772 0.9811336 0.7279503 0.9818612 0.7534816 0.827396 0.7538593 0.8281985 0.7305349 0.8369575 0.7325772 0.7596003 0.5233904 0.9646731 0.5076118 0.9806835 0.7156978 0.8262164 0.7716143 0.755182 0.9483863 0.7435778 0.94377 0.7584019 0.9496125 0.755182 0.9483863 0.8262164 0.7716143 0.8281985 0.7305349 0.827396 0.7538593 0.8139429 0.7540808 0.7596003 0.5233904 0.834428 0.7224497 0.8266533 0.7128454 0.8146548 0.7308969 0.8145021 0.7273036 0.8285952 0.7263875 0.8145021 0.7273036 0.8139724 0.7221338 0.8281821 0.7202533 0.8139724 0.7221338 0.8128625 0.7156827 0.8266533 0.7128454 0.8128814 0.7690658 0.8136551 0.7629011 0.8277903 0.764221 0.8136551 0.7629011 0.8139047 0.7578182 0.8280791 0.7580341 0.8139047 0.7578182 0.8139429 0.7540808 0.827396 0.7538593 0.8369575 0.7325772 0.8370533 0.7301972 0.9810316 0.724983 0.8370533 0.7301972 0.8362414 0.7270261 0.9808759 0.720712 0.8362414 0.7270261 0.834428 0.7224497 0.9806835 0.7156978 0.9818612 0.7534816 0.9818175 0.7565456 0.8369649 0.7537879 0.9818175 0.7565456 0.9817547 0.7606509 0.8361267 0.7571825 0.9817547 0.7606509 0.9816757 0.7655496 0.8342168 0.7619777 0.827396 0.7538593 0.836852 0.75126 0.8369649 0.7537879 0.8280791 0.7580341 0.8369649 0.7537879 0.8361267 0.7571825 0.8277903 0.764221 0.8361267 0.7571825 0.8342168 0.7619777 0.834428 0.7224497 0.8362414 0.7270261 0.8281821 0.7202533 0.8362414 0.7270261 0.8370533 0.7301972 0.8285952 0.7263875 0.8370533 0.7301972 0.8369575 0.7325772 0.8281985 0.7305349 0.8128625 0.7156827 0.7435595 0.529293 0.7561715 0.5246036 0.9801406 0.2265722 0.9375888 0.2265722 0.9424222 0.00550419 0.962498 0.2315087 0.962498 0.2564385 0.9375683 0.2564385 0.962498 0.2564385 0.962498 0.2813681 0.9375683 0.2813681 0.962498 0.2813681 0.962498 0.3062979 0.9375683 0.3062979 0.962498 0.3062979 0.962498 0.3312276 0.9375683 0.3312276 0.9874278 0.2813681 0.9874278 0.3062979 0.962498 0.3062979 0.9624905 0.2315182 0.9624905 0.256448 0.9375607 0.256448 0.9624905 0.256448 0.9624905 0.2813776 0.9375607 0.2813776 0.9624905 0.2813776 0.9624905 0.3063074 0.9375607 0.3063074 0.9624905 0.3063074 0.9624905 0.3312371 0.9375607 0.3312371 0.9874202 0.2813776 0.9874202 0.3063074 0.9624905 0.3063074 0.962498 0.2315151 0.962498 0.2564449 0.9375683 0.2564449 0.962498 0.2564449 0.962498 0.2813745 0.9375683 0.2813745 0.962498 0.2813745 0.962498 0.3063045 0.9375683 0.3063045 0.962498 0.3063045 0.962498 0.331234 0.9375683 0.331234 0.9874278 0.2813745 0.9874278 0.3063045 0.962498 0.3063045 0.9624905 0.2315117 0.9624905 0.2564414 0.9375607 0.2564414 0.9624905 0.2564414 0.9624905 0.2813712 0.9375607 0.2813712 0.9624905 0.2813712 0.9624905 0.3063009 0.9375607 0.3063009 0.9624905 0.3063009 0.9624905 0.3312307 0.9375607 0.3312307 0.9874202 0.2813712 0.9874202 0.3063009 0.9624905 0.3063009 0.962498 0.2315099 0.962498 0.2564398 0.9375683 0.2564398 0.962498 0.2564398 0.962498 0.2813694 0.9375683 0.2813694 0.962498 0.2813694 0.962498 0.3062991 0.9375683 0.3062991 0.962498 0.3062991 0.962498 0.3312289 0.9375683 0.3312289 0.9874278 0.2813694 0.9874278 0.3062991 0.962498 0.3062991 0.9624905 0.2315052 0.9624905 0.256435 0.9375607 0.256435 0.9624905 0.256435 0.9624905 0.2813646 0.9375607 0.2813646 0.9624905 0.2813646 0.9624905 0.3062946 0.9375607 0.3062946 0.9624905 0.3062946 0.9624905 0.3312243 0.9375607 0.3312243 0.9874202 0.2813646 0.9874202 0.3062946 0.9624905 0.3062946 0.962498 0.2315046 0.962498 0.2564345 0.9375683 0.2564345 0.962498 0.2564345 0.962498 0.2813641 0.9375683 0.2813641 0.962498 0.2813641 0.962498 0.3062938 0.9375683 0.3062938 0.962498 0.3062938 0.962498 0.3312236 0.9375683 0.3312236 0.9874278 0.2813641 0.9874278 0.3062938 0.962498 0.3062938 0.9624905 0.2315105 0.9624905 0.2564404 0.9375607 0.2564404 0.9624905 0.2564404 0.9624905 0.2813699 0.9375607 0.2813699 0.9624905 0.2813699 0.9624905 0.3062997 0.9375607 0.3062997 0.9624905 0.3062997 0.9624905 0.3312295 0.9375607 0.3312295 0.9874202 0.2813699 0.9874202 0.3062997 0.9624905 0.3062997 0.9874278 0.2813706 0.9874278 0.3063004 0.962498 0.3063004 0.962498 0.3063004 0.962498 0.3312301 0.9375683 0.3312301 0.962498 0.2813706 0.962498 0.3063004 0.9375683 0.3063004 0.962498 0.2564409 0.962498 0.2813706 0.9375683 0.2813706 0.962498 0.2315111 0.962498 0.2564409 0.9375683 0.2564409 0.9874254 0.2813653 0.9874254 0.306295 0.9624957 0.306295 0.9624957 0.306295 0.9624957 0.3312249 0.9375659 0.3312249 0.9624957 0.2813653 0.9624957 0.306295 0.9375659 0.306295 0.9624957 0.2564356 0.9624957 0.2813653 0.9375659 0.2813653 0.9624957 0.2315058 0.9624957 0.2564356 0.9375659 0.2564356 0.9874225 0.2813763 0.9874225 0.3063061 0.9624927 0.3063061 0.9624927 0.3063061 0.9624926 0.3312359 0.9375628 0.3312359 0.9624927 0.2813763 0.9624927 0.3063061 0.937563 0.3063061 0.9624927 0.2564468 0.9624927 0.2813763 0.937563 0.2813763 0.9624927 0.231517 0.9624927 0.2564468 0.937563 0.2564468 0.9874243 0.2813758 0.9874243 0.3063055 0.9624946 0.3063055 0.9624946 0.3063055 0.9624946 0.3312353 0.9375648 0.3312353 0.9624946 0.2813758 0.9624946 0.3063055 0.9375648 0.3063055 0.9624946 0.256446 0.9624946 0.2813758 0.9375648 0.2813758 0.9624946 0.2315164 0.9624946 0.256446 0.9375648 0.256446 0.9874266 0.2813678 0.9874266 0.3062974 0.9624971 0.3062974 0.9624971 0.3062974 0.9624971 0.3312273 0.9375672 0.3312273 0.9624971 0.2813678 0.9624971 0.3062974 0.9375672 0.3062974 0.9624971 0.2564381 0.9624971 0.2813678 0.9375672 0.2813678 0.9624971 0.2315083 0.9624971 0.2564381 0.9375672 0.2564381 0.987419 0.2813675 0.987419 0.3062972 0.9624893 0.3062972 0.9624893 0.3062972 0.9624893 0.3312271 0.9375595 0.3312271 0.9624893 0.2813675 0.9624893 0.3062972 0.9375595 0.3062972 0.9624893 0.2564378 0.9624893 0.2813675 0.9375595 0.2813675 0.9624893 0.231508 0.9624893 0.2564378 0.9375595 0.2564378 0.9874229 0.2813774 0.9874229 0.3063072 0.9624931 0.3063072 0.9624931 0.3063072 0.9624931 0.331237 0.9375634 0.331237 0.9624931 0.2813774 0.9624931 0.3063072 0.9375634 0.3063072 0.9624931 0.2564479 0.9624931 0.2813774 0.9375634 0.2813774 0.9624931 0.231518 0.9624931 0.2564479 0.9375634 0.2564479 0.9874246 0.281367 0.9874246 0.3062967 0.9624948 0.3062967 0.9624948 0.3062967 0.9624948 0.3312265 0.9375651 0.3312265 0.9624948 0.281367 0.9624948 0.3062967 0.9375651 0.3062967 0.9624948 0.2564373 0.9624948 0.281367 0.9375651 0.281367 0.9624948 0.2315075 0.9624948 0.2564373 0.9375651 0.2564373 0.9874212 0.281378 0.9874212 0.3063077 0.9624915 0.3063077 0.9624915 0.3063077 0.9624915 0.3312375 0.9375617 0.3312375 0.9624915 0.281378 0.9624915 0.3063077 0.9375617 0.3063077 0.9624915 0.2564484 0.9624915 0.281378 0.9375617 0.281378 0.9624915 0.2315186 0.9624915 0.2564484 0.9375617 0.2564484 0.001499772 0.800983 0.001499772 0.7997208 0.4333705 0.7997209 0.001499772 0.7997208 0.001499772 0.7976848 0.4333705 0.7976849 0.001499772 0.7976848 0.001499772 0.7956488 0.4333705 0.7956488 0.001499772 0.7956488 0.001499772 0.7943866 0.4333705 0.7943866 0.001499593 0.2056178 0.001499533 0.2043556 0.4333703 0.2043556 0.001499533 0.2043556 0.001499533 0.2023196 0.4333703 0.2023196 0.001499533 0.2023196 0.001499533 0.2002835 0.4333703 0.2002836 0.001499533 0.2002835 0.001499533 0.1990213 0.4333703 0.1990214 0.4333703 0.1807261 0.4333703 0.1990214 0.001499533 0.1990213 0.685841 0.00150752 0.6868496 0.00150752 0.6868496 0.3217718 0.6868496 0.00150752 0.6884767 0.00150752 0.6884767 0.3217718 0.6884767 0.00150752 0.6901038 0.00150752 0.6901038 0.3217718 0.6901038 0.00150752 0.6911124 0.00150752 0.6911124 0.3217718 0.685841 0.001502573 0.6868496 0.001502573 0.6868496 0.3217668 0.6868496 0.001502573 0.6884767 0.001502573 0.6884767 0.3217668 0.6884767 0.001502573 0.6901038 0.001502573 0.6901038 0.3217668 0.6901038 0.001502573 0.6911124 0.001502573 0.6911124 0.3217668 0.685841 0.00150752 0.6868496 0.00150752 0.6868496 0.3217718 0.6868496 0.00150752 0.6884767 0.00150752 0.6884767 0.3217718 0.6884767 0.00150752 0.6901038 0.00150752 0.6901038 0.3217718 0.6901038 0.00150752 0.6911123 0.00150752 0.6911124 0.3217718 0.685841 0.001502335 0.6868497 0.001502335 0.6868497 0.3217666 0.6868497 0.001502335 0.6884767 0.001502335 0.6884767 0.3217666 0.6884767 0.001502335 0.6901038 0.001502335 0.6901038 0.3217666 0.6901038 0.001502335 0.6911123 0.001502335 0.6911124 0.3217666 0.685841 0.001502335 0.6868497 0.001502335 0.6868497 0.3217666 0.6868497 0.001502335 0.6884767 0.001502335 0.6884767 0.3217666 0.6884767 0.001502335 0.6901038 0.001502335 0.6901038 0.3217666 0.6901038 0.001502335 0.6911124 0.001502335 0.6911124 0.3217666 0.6824539 0.00150752 0.685841 0.00150752 0.685841 0.3217718 1 0 1 1 0 1</float_array>
          <technique_common>
            <accessor source="#Cube_001-mesh-map-0-array" count="1092" stride="2">
              <param name="S" type="float"/>
              <param name="T" type="float"/>
            </accessor>
          </technique_common>
        </source>
        <source id="Cube_001-mesh-map-1">
          <float_array id="Cube_001-mesh-map-1-array" count="2184">0.3624899 6.58326e-4 0.4383231 0.1902416 0.3624898 0.1902416 6.56426e-4 6.58386e-4 0.07648974 0.1902416 6.56388e-4 0.1902416 0.367097 0.82682 0.3758472 0.9143225 0.367097 0.9143225 0.297095 0.82682 0.367097 0.9143225 0.297095 0.9143225 0.09441721 0.0108447 0.1748547 0.1796945 0.09441721 0.1796945 0.09308075 6.79135e-4 0.09308069 6.79135e-4 0.09308069 6.79135e-4 0.07933348 6.58366e-4 0.08736479 0.1902416 0.07933348 0.1902416 0.3473232 6.58351e-4 0.3487191 0.1902416 0.3473232 0.1902416 0.3624898 0.1902416 0.3596462 6.58352e-4 0.3624899 6.58326e-4 0.09580355 6.78956e-4 0.09580349 6.78956e-4 0.09580349 6.78956e-4 0.09165638 0.1902416 0.0902605 6.58406e-4 0.09165638 6.58394e-4 0.07648974 6.58392e-4 0.07933348 0.1902416 0.07648974 0.1902416 0.3445624 0.1796945 0.3473232 6.58351e-4 0.3473232 0.1902416 0.09441721 0.1796945 0.09165638 6.58394e-4 0.09441721 0.0108447 0.2526929 0.9231476 0.1465003 0.9353177 0.1496859 0.9231476 0.3852503 0.911774 0.3758472 0.82682 0.3852503 0.8293685 0.1748548 0.01084476 0.2641248 0.1796945 0.1748547 0.1796945 0.1496859 0.9231476 0.2526929 0.8303323 0.2526929 0.9231476 0.3445624 0.1796945 0.2641248 0.0108447 0.3445624 0.0108447 0.3852503 0.8293685 0.4595025 0.911774 0.3852503 0.911774 0.1425672 0.4018857 0.2831572 0.5099139 0.1425672 0.5099139 0.1412499 0.3000807 6.59885e-4 0.3015676 6.59885e-4 0.3000807 0.2831573 0.5137149 0.1425672 0.620586 0.1425672 0.5137149 6.59904e-4 0.1920525 0.1412499 0.3000807 6.59885e-4 0.3000807 0.3951474 0.4748737 0.3936606 0.3342837 0.3951474 0.3342837 0.14125 0.3038817 6.5988e-4 0.4107528 6.59885e-4 0.3038817 0.5031756 0.3342837 0.3951474 0.4748737 0.3951474 0.3342837 0.2831596 0.2895452 0.1425694 0.291032 0.1425694 0.2895452 0.3913465 0.4748738 0.2844753 0.3342837 0.3913465 0.3342837 0.1425695 0.181517 0.2831596 0.2895452 0.1425694 0.2895452 0.3951474 0.332646 0.3936606 0.192056 0.3951474 0.192056 0.2831596 0.2933461 0.1425694 0.4002172 0.1425694 0.2933461 0.5031756 0.192056 0.3951474 0.332646 0.3951474 0.192056 0.3913465 0.332646 0.2844753 0.192056 0.3913465 0.192056 0.00511229 0.6328921 0.06547123 0.7293031 7.39514e-4 0.7277351 0.06426811 0.7422093 6.58064e-4 0.7330327 0.06431442 0.734008 0.06846547 0.7328669 0.06426811 0.7422093 0.06431442 0.734008 0.09822648 0.8340385 0.001175045 0.7496191 0.06537854 0.7466551 0.06898325 0.7250728 0.1052601 0.6494996 0.07483708 0.7261915 0.09875255 0.6469349 0.06898325 0.7250728 0.06547123 0.7293031 0.06811314 0.7431058 0.07437109 0.7327696 0.07405859 0.742947 0.09822648 0.8340385 0.06879144 0.7508713 0.09973168 0.8335059 0.07405859 0.742947 0.06793904 0.7449265 0.06811314 0.7431058 0.07412564 0.7445244 0.06812036 0.7476193 0.06793904 0.7449265 0.07435816 0.7467938 0.06879144 0.7508713 0.06812036 0.7476193 0.07483708 0.7261915 0.06829231 0.7283183 0.06898325 0.7250728 0.0744974 0.7288977 0.06816554 0.7310342 0.06829231 0.7283183 0.07438784 0.731129 0.06846547 0.7328669 0.06816554 0.7310342 0.06426811 0.7422093 0.001022219 0.7455431 9.77455e-4 0.7442405 0.06422603 0.7432541 0.001090586 0.7474179 0.001022219 0.7455431 0.06458246 0.7446462 0.001175045 0.7496191 0.001090586 0.7474179 6.58064e-4 0.7330327 0.06426483 0.7328982 0.06431442 0.734008 6.77257e-4 0.7316877 0.06463283 0.7314081 0.06426483 0.7328982 7.04824e-4 0.7298855 0.06547123 0.7293031 0.06463283 0.7314081 0.06846547 0.7328669 0.06426483 0.7328982 0.06816554 0.7310342 0.06816554 0.7310342 0.06463283 0.7314081 0.06829231 0.7283183 0.06829231 0.7283183 0.06547123 0.7293031 0.06898325 0.7250728 0.06537854 0.7466551 0.06812036 0.7476193 0.06879144 0.7508713 0.06458246 0.7446462 0.06793904 0.7449265 0.06812036 0.7476193 0.06422603 0.7432541 0.06811314 0.7431058 0.06793904 0.7449265 0.07484537 0.7496257 0.09973168 0.8335059 0.06879144 0.7508713 0.9330669 0.09770512 0.9165092 6.60335e-4 0.9309452 6.60335e-4 0.9142591 0.3439415 0.9033154 0.3548852 0.9033154 0.3439415 0.9142591 0.3548852 0.9033154 0.3658289 0.9033154 0.3548852 0.9142591 0.3658289 0.9033154 0.3767726 0.9033154 0.3658289 0.9142591 0.3767726 0.9033154 0.3877162 0.9033154 0.3767726 0.9252029 0.3658289 0.9142591 0.3767726 0.9142591 0.3658289 0.9397788 0.3306505 0.9507225 0.3197067 0.9507225 0.3306505 0.9397788 0.3197067 0.9507225 0.3087631 0.9507225 0.3197067 0.9397788 0.3087631 0.9507225 0.2978194 0.9507225 0.3087631 0.9397788 0.2978194 0.9507225 0.2868757 0.9507225 0.2978194 0.9288351 0.3087631 0.9397788 0.2978194 0.9397788 0.3087631 0.1057401 0.9729728 0.1166838 0.9839165 0.1057401 0.9839165 0.1166838 0.9729728 0.1276274 0.9839165 0.1166838 0.9839165 0.1276274 0.9729728 0.1385712 0.9839165 0.1276274 0.9839165 0.1385712 0.9729728 0.1495149 0.9839165 0.1385712 0.9839165 0.1276274 0.962029 0.1385712 0.9729728 0.1276274 0.9729728 0.5636979 0.5910578 0.5746417 0.6020014 0.5636979 0.6020014 0.5746417 0.5910578 0.5855854 0.6020014 0.5746417 0.6020014 0.5855854 0.5910578 0.596529 0.6020014 0.5855854 0.6020014 0.596529 0.5910578 0.6074727 0.6020014 0.596529 0.6020014 0.5855854 0.5801141 0.596529 0.5910578 0.5855854 0.5910578 0.7886199 0.4233661 0.7776762 0.4124224 0.7886199 0.4124224 0.7776762 0.4233661 0.7667326 0.4124224 0.7776762 0.4124224 0.7667326 0.4233661 0.7557889 0.4124224 0.7667326 0.4124224 0.7557889 0.4233661 0.7448452 0.4124224 0.7557889 0.4124224 0.7667326 0.4343098 0.7557889 0.4233661 0.7667326 0.4233661 0.506039 0.9791178 0.4950954 0.9681741 0.506039 0.9681741 0.4950954 0.9791178 0.4841517 0.9681741 0.4950954 0.9681741 0.4841517 0.9791178 0.4732079 0.9681741 0.4841517 0.9681741 0.4732079 0.9791178 0.4622642 0.9681741 0.4732079 0.9681741 0.4841517 0.9900615 0.4732079 0.9791178 0.4841517 0.9791178 0.9419521 0.5922806 0.9528958 0.5813369 0.9528958 0.5922806 0.9419521 0.5813369 0.9528958 0.5703932 0.9528958 0.5813369 0.9419521 0.5703932 0.9528958 0.5594496 0.9528958 0.5703932 0.9419521 0.5594496 0.9528958 0.5485059 0.9528958 0.5594496 0.9310084 0.5703932 0.9419521 0.5594496 0.9419521 0.5703932 0.8254027 0.4242447 0.8363465 0.4351884 0.8254027 0.4351884 0.8363465 0.4242447 0.8472901 0.4351884 0.8363465 0.4351884 0.8472901 0.4242448 0.8582338 0.4351884 0.8472901 0.4351884 0.8582338 0.4242448 0.8691775 0.4351884 0.8582338 0.4351884 0.8472901 0.4133011 0.8582338 0.4242448 0.8472901 0.4242448 0.9431183 0.4378229 0.9321746 0.4487666 0.9321746 0.4378229 0.9321746 0.4487666 0.9212309 0.4597103 0.9212309 0.4487666 0.9321746 0.4378229 0.9212309 0.4487666 0.9212309 0.4378229 0.9321746 0.4268792 0.9212309 0.4378229 0.9212309 0.4268792 0.9321746 0.4159355 0.9212309 0.4268792 0.9212309 0.4159355 0.06895339 0.965542 0.0798971 0.9764857 0.06895339 0.9764857 0.0798971 0.9764857 0.09084081 0.9874294 0.0798971 0.9874294 0.06895339 0.9764857 0.0798971 0.9874294 0.06895339 0.9874294 0.05800968 0.9764857 0.06895339 0.9874294 0.05800968 0.9874294 0.04706597 0.9764857 0.05800968 0.9874294 0.04706597 0.9874294 0.9323235 0.6511693 0.9432672 0.6402257 0.9432672 0.6511693 0.9432672 0.6402257 0.9542109 0.6292819 0.9542109 0.6402257 0.9432672 0.6511693 0.9542109 0.6402257 0.9542109 0.6511693 0.9432672 0.662113 0.9542109 0.6511693 0.9542109 0.662113 0.9432672 0.6730567 0.9542109 0.662113 0.9542109 0.6730567 0.9323432 0.1103442 0.9432869 0.09940052 0.9432869 0.1103442 0.9432869 0.09940052 0.9542306 0.08845686 0.9542306 0.09940052 0.9432869 0.1103442 0.9542306 0.09940052 0.9542306 0.1103442 0.9432869 0.121288 0.9542306 0.1103442 0.9542306 0.121288 0.9432869 0.1322316 0.9542306 0.121288 0.9542306 0.1322316 0.5966026 0.5520208 0.6075463 0.5629644 0.5966026 0.5629644 0.6075463 0.5629644 0.61849 0.5739082 0.6075463 0.5739082 0.5966026 0.5629644 0.6075463 0.5739082 0.5966026 0.5739082 0.585659 0.5629644 0.5966026 0.5739082 0.585659 0.5739082 0.5747152 0.5629644 0.585659 0.5739082 0.5747152 0.5739082 0.9078033 0.5826876 0.918747 0.571744 0.918747 0.5826876 0.918747 0.571744 0.9296907 0.5608002 0.9296907 0.571744 0.918747 0.5826876 0.9296907 0.571744 0.9296907 0.5826876 0.918747 0.5936313 0.9296907 0.5826876 0.9296907 0.5936313 0.918747 0.604575 0.9296907 0.5936313 0.9296907 0.604575 0.932747 0.02254718 0.9436907 0.01160347 0.9436907 0.02254718 0.9436907 0.01160347 0.9546344 6.59817e-4 0.9546344 0.01160347 0.9436907 0.02254718 0.9546344 0.01160347 0.9546344 0.02254718 0.9436907 0.03349083 0.9546344 0.02254718 0.9546344 0.03349083 0.9436907 0.04443454 0.9546344 0.03349083 0.9546344 0.04443454 0.9743587 0.2244789 0.9853025 0.2135353 0.9853025 0.2244789 0.9853025 0.2135353 0.9962461 0.2025915 0.9962461 0.2135353 0.9853025 0.2244789 0.9962461 0.2135353 0.9962461 0.2244789 0.9853025 0.2354226 0.9962461 0.2244789 0.9962461 0.2354226 0.9853025 0.2463663 0.9962461 0.2354226 0.9962461 0.2463663 0.9333422 0.1559973 0.9442859 0.1450536 0.9442859 0.1559973 0.9442859 0.1450536 0.9552296 0.1341099 0.9552296 0.1450536 0.9442859 0.1559973 0.9552296 0.1450536 0.9552296 0.1559973 0.9442859 0.166941 0.9552296 0.1559973 0.9552296 0.166941 0.9442859 0.1778847 0.9552296 0.166941 0.9552296 0.1778847 0.08736479 6.58412e-4 0.08791881 0.1902416 0.08736479 0.1902416 0.08791887 6.58415e-4 0.08881264 0.1902416 0.08791881 0.1902416 0.08881264 6.5842e-4 0.08970642 0.1902416 0.08881264 0.1902416 0.08970642 6.58411e-4 0.09026044 0.1902416 0.08970642 0.1902416 0.3487191 6.58338e-4 0.3492732 0.1902416 0.3487191 0.1902416 0.3492732 6.58333e-4 0.350167 0.1902416 0.3492732 0.1902416 0.350167 6.58325e-4 0.3510608 0.1902416 0.350167 0.1902416 0.3510608 6.58327e-4 0.3516148 0.1902416 0.3510608 0.1902416 0.3596461 0.1902416 0.3516148 6.58329e-4 0.3596462 6.58352e-4 0.2831572 0.5114008 0.1425672 0.5118436 0.1425672 0.5114008 0.2831572 0.5118436 0.1425672 0.5125578 0.1425672 0.5118436 0.2831572 0.5125578 0.1425672 0.5132721 0.1425672 0.5125578 0.2831573 0.5132721 0.1425672 0.5137149 0.1425672 0.5132721 0.1412499 0.3015676 6.59885e-4 0.3020104 6.59885e-4 0.3015676 0.1412499 0.3020104 6.59885e-4 0.3027246 6.59885e-4 0.3020104 0.1412499 0.3027246 6.59885e-4 0.3034389 6.59885e-4 0.3027246 0.1412499 0.3034389 6.59885e-4 0.3038817 6.59885e-4 0.3034389 0.3936606 0.4748737 0.3932178 0.3342837 0.3936606 0.3342837 0.3932178 0.4748738 0.3925035 0.3342837 0.3932178 0.3342837 0.3925035 0.4748737 0.3917893 0.3342837 0.3925035 0.3342837 0.3917893 0.4748737 0.3913465 0.3342837 0.3917893 0.3342837 0.2831596 0.2910321 0.1425694 0.2914748 0.1425694 0.291032 0.2831596 0.2914748 0.1425694 0.2921891 0.1425694 0.2914748 0.2831596 0.2921891 0.1425694 0.2929033 0.1425694 0.2921891 0.2831596 0.2929033 0.1425694 0.2933461 0.1425694 0.2929033 0.3936606 0.332646 0.3932178 0.192056 0.3936606 0.192056 0.3932178 0.332646 0.3925035 0.192056 0.3932178 0.192056 0.3925035 0.332646 0.3917893 0.192056 0.3925035 0.192056 0.3917893 0.332646 0.3913465 0.192056 0.3917893 0.192056 0.2831572 0.5099139 0.1425672 0.5114008 0.1425672 0.5099139 0 0 0 0 0 0 0.3624899 6.58326e-4 0.4383232 6.58332e-4 0.4383231 0.1902416 6.56426e-4 6.58386e-4 0.07648974 6.58392e-4 0.07648974 0.1902416 0.367097 0.82682 0.3758472 0.82682 0.3758472 0.9143225 0.297095 0.82682 0.367097 0.82682 0.367097 0.9143225 0.09441721 0.0108447 0.1748548 0.01084476 0.1748547 0.1796945 0.09308075 6.79135e-4 0.09308075 6.79135e-4 0.09308069 6.79135e-4 0.09308075 6.79135e-4 0.09308075 6.79135e-4 0.09308069 6.79135e-4 0.09308075 6.79135e-4 0.09308069 6.79135e-4 0.09308069 6.79135e-4 0.09308069 6.79135e-4 0.09308075 6.79135e-4 0.09308075 6.79135e-4 0.09308075 6.79135e-4 0.09308075 6.79135e-4 0.09308075 6.79135e-4 0.07933348 6.58366e-4 0.08736479 6.58412e-4 0.08736479 0.1902416 0.3473232 6.58351e-4 0.3487191 6.58338e-4 0.3487191 0.1902416 0.3624898 0.1902416 0.3596461 0.1902416 0.3596462 6.58352e-4 0.09580349 6.78956e-4 0.09580349 6.78956e-4 0.09580349 6.78956e-4 0.09580349 6.78956e-4 0.09580349 6.78956e-4 0.09580349 6.78956e-4 0.09580349 6.78956e-4 0.09580349 6.78956e-4 0.09580349 6.78956e-4 0.09580349 6.78956e-4 0.09580349 6.78956e-4 0.09580349 6.78956e-4 0.09580349 6.78956e-4 0.09580355 6.78956e-4 0.09580349 6.78956e-4 0.09165638 0.1902416 0.09026044 0.1902416 0.0902605 6.58406e-4 0.07648974 6.58392e-4 0.07933348 6.58366e-4 0.07933348 0.1902416 0.3445624 0.1796945 0.3445624 0.0108447 0.3473232 6.58351e-4 0.09441721 0.1796945 0.09165638 0.1902416 0.09165638 6.58394e-4 0.2526929 0.9231476 0.2558785 0.9353177 0.1465003 0.9353177 0.3852503 0.911774 0.3758472 0.9143225 0.3758472 0.82682 0.1748548 0.01084476 0.2641248 0.0108447 0.2641248 0.1796945 0.1496859 0.9231476 0.1496859 0.8303323 0.2526929 0.8303323 0.3445624 0.1796945 0.2641248 0.1796945 0.2641248 0.0108447 0.3852503 0.8293685 0.4595025 0.8293685 0.4595025 0.911774 0.1425672 0.4018857 0.2831573 0.4018857 0.2831572 0.5099139 0.1412499 0.3000807 0.1412499 0.3015676 6.59885e-4 0.3015676 0.2831573 0.5137149 0.2831572 0.620586 0.1425672 0.620586 6.59904e-4 0.1920525 0.14125 0.1920526 0.1412499 0.3000807 0.3951474 0.4748737 0.3936606 0.4748737 0.3936606 0.3342837 0.14125 0.3038817 0.1412499 0.4107528 6.5988e-4 0.4107528 0.5031756 0.3342837 0.5031756 0.4748738 0.3951474 0.4748737 0.2831596 0.2895452 0.2831596 0.2910321 0.1425694 0.291032 0.3913465 0.4748738 0.2844753 0.4748737 0.2844753 0.3342837 0.1425695 0.181517 0.2831596 0.181517 0.2831596 0.2895452 0.3951474 0.332646 0.3936606 0.332646 0.3936606 0.192056 0.2831596 0.2933461 0.2831595 0.4002172 0.1425694 0.4002172 0.5031756 0.192056 0.5031756 0.332646 0.3951474 0.332646 0.3913465 0.332646 0.2844753 0.332646 0.2844753 0.192056 0.00511229 0.6328921 0.09875255 0.6469349 0.06547123 0.7293031 0.06426811 0.7422093 9.77455e-4 0.7442405 6.58064e-4 0.7330327 0.06846547 0.7328669 0.06811314 0.7431058 0.06426811 0.7422093 0.09822648 0.8340385 0.008203268 0.840965 0.001175045 0.7496191 0.06898325 0.7250728 0.1001661 0.6474732 0.1052601 0.6494996 0.09875255 0.6469349 0.1001661 0.6474732 0.06898325 0.7250728 0.06811314 0.7431058 0.06846547 0.7328669 0.07437109 0.7327696 0.09822648 0.8340385 0.06537854 0.7466551 0.06879144 0.7508713 0.07405859 0.742947 0.07412564 0.7445244 0.06793904 0.7449265 0.07412564 0.7445244 0.07435816 0.7467938 0.06812036 0.7476193 0.07435816 0.7467938 0.07484537 0.7496257 0.06879144 0.7508713 0.07483708 0.7261915 0.0744974 0.7288977 0.06829231 0.7283183 0.0744974 0.7288977 0.07438784 0.731129 0.06816554 0.7310342 0.07438784 0.731129 0.07437109 0.7327696 0.06846547 0.7328669 0.06426811 0.7422093 0.06422603 0.7432541 0.001022219 0.7455431 0.06422603 0.7432541 0.06458246 0.7446462 0.001090586 0.7474179 0.06458246 0.7446462 0.06537854 0.7466551 0.001175045 0.7496191 6.58064e-4 0.7330327 6.77257e-4 0.7316877 0.06426483 0.7328982 6.77257e-4 0.7316877 7.04824e-4 0.7298855 0.06463283 0.7314081 7.04824e-4 0.7298855 7.39514e-4 0.7277351 0.06547123 0.7293031 0.06846547 0.7328669 0.06431442 0.734008 0.06426483 0.7328982 0.06816554 0.7310342 0.06426483 0.7328982 0.06463283 0.7314081 0.06829231 0.7283183 0.06463283 0.7314081 0.06547123 0.7293031 0.06537854 0.7466551 0.06458246 0.7446462 0.06812036 0.7476193 0.06458246 0.7446462 0.06422603 0.7432541 0.06793904 0.7449265 0.06422603 0.7432541 0.06426811 0.7422093 0.06811314 0.7431058 0.07484537 0.7496257 0.1052681 0.8314474 0.09973168 0.8335059 0.9330669 0.09770512 0.9143874 0.09770512 0.9165092 6.60335e-4 0.9142591 0.3439415 0.9142591 0.3548852 0.9033154 0.3548852 0.9142591 0.3548852 0.9142591 0.3658289 0.9033154 0.3658289 0.9142591 0.3658289 0.9142591 0.3767726 0.9033154 0.3767726 0.9142591 0.3767726 0.9142591 0.3877162 0.9033154 0.3877162 0.9252029 0.3658289 0.9252029 0.3767726 0.9142591 0.3767726 0.9397788 0.3306505 0.9397788 0.3197067 0.9507225 0.3197067 0.9397788 0.3197067 0.9397788 0.3087631 0.9507225 0.3087631 0.9397788 0.3087631 0.9397788 0.2978194 0.9507225 0.2978194 0.9397788 0.2978194 0.9397788 0.2868757 0.9507225 0.2868757 0.9288351 0.3087631 0.9288351 0.2978194 0.9397788 0.2978194 0.1057401 0.9729728 0.1166838 0.9729728 0.1166838 0.9839165 0.1166838 0.9729728 0.1276274 0.9729728 0.1276274 0.9839165 0.1276274 0.9729728 0.1385712 0.9729728 0.1385712 0.9839165 0.1385712 0.9729728 0.1495149 0.9729728 0.1495149 0.9839165 0.1276274 0.962029 0.1385712 0.962029 0.1385712 0.9729728 0.5636979 0.5910578 0.5746417 0.5910578 0.5746417 0.6020014 0.5746417 0.5910578 0.5855854 0.5910578 0.5855854 0.6020014 0.5855854 0.5910578 0.596529 0.5910578 0.596529 0.6020014 0.596529 0.5910578 0.6074727 0.5910578 0.6074727 0.6020014 0.5855854 0.5801141 0.596529 0.5801141 0.596529 0.5910578 0.7886199 0.4233661 0.7776762 0.4233661 0.7776762 0.4124224 0.7776762 0.4233661 0.7667326 0.4233661 0.7667326 0.4124224 0.7667326 0.4233661 0.7557889 0.4233661 0.7557889 0.4124224 0.7557889 0.4233661 0.7448452 0.4233661 0.7448452 0.4124224 0.7667326 0.4343098 0.7557889 0.4343098 0.7557889 0.4233661 0.506039 0.9791178 0.4950954 0.9791178 0.4950954 0.9681741 0.4950954 0.9791178 0.4841517 0.9791178 0.4841517 0.9681741 0.4841517 0.9791178 0.4732079 0.9791178 0.4732079 0.9681741 0.4732079 0.9791178 0.4622642 0.9791178 0.4622642 0.9681741 0.4841517 0.9900615 0.4732079 0.9900615 0.4732079 0.9791178 0.9419521 0.5922806 0.9419521 0.5813369 0.9528958 0.5813369 0.9419521 0.5813369 0.9419521 0.5703932 0.9528958 0.5703932 0.9419521 0.5703932 0.9419521 0.5594496 0.9528958 0.5594496 0.9419521 0.5594496 0.9419521 0.5485059 0.9528958 0.5485059 0.9310084 0.5703932 0.9310084 0.5594496 0.9419521 0.5594496 0.8254027 0.4242447 0.8363465 0.4242447 0.8363465 0.4351884 0.8363465 0.4242447 0.8472901 0.4242448 0.8472901 0.4351884 0.8472901 0.4242448 0.8582338 0.4242448 0.8582338 0.4351884 0.8582338 0.4242448 0.8691775 0.4242448 0.8691775 0.4351884 0.8472901 0.4133011 0.8582338 0.4133011 0.8582338 0.4242448 0.9431183 0.4378229 0.9431183 0.4487666 0.9321746 0.4487666 0.9321746 0.4487666 0.9321746 0.4597103 0.9212309 0.4597103 0.9321746 0.4378229 0.9321746 0.4487666 0.9212309 0.4487666 0.9321746 0.4268792 0.9321746 0.4378229 0.9212309 0.4378229 0.9321746 0.4159355 0.9321746 0.4268792 0.9212309 0.4268792 0.06895339 0.965542 0.0798971 0.965542 0.0798971 0.9764857 0.0798971 0.9764857 0.09084081 0.9764857 0.09084081 0.9874294 0.06895339 0.9764857 0.0798971 0.9764857 0.0798971 0.9874294 0.05800968 0.9764857 0.06895339 0.9764857 0.06895339 0.9874294 0.04706597 0.9764857 0.05800968 0.9764857 0.05800968 0.9874294 0.9323235 0.6511693 0.9323235 0.6402257 0.9432672 0.6402257 0.9432672 0.6402257 0.9432672 0.6292819 0.9542109 0.6292819 0.9432672 0.6511693 0.9432672 0.6402257 0.9542109 0.6402257 0.9432672 0.662113 0.9432672 0.6511693 0.9542109 0.6511693 0.9432672 0.6730567 0.9432672 0.662113 0.9542109 0.662113 0.9323432 0.1103442 0.9323432 0.09940052 0.9432869 0.09940052 0.9432869 0.09940052 0.9432869 0.08845686 0.9542306 0.08845686 0.9432869 0.1103442 0.9432869 0.09940052 0.9542306 0.09940052 0.9432869 0.121288 0.9432869 0.1103442 0.9542306 0.1103442 0.9432869 0.1322316 0.9432869 0.121288 0.9542306 0.121288 0.5966026 0.5520208 0.6075463 0.5520208 0.6075463 0.5629644 0.6075463 0.5629644 0.61849 0.5629644 0.61849 0.5739082 0.5966026 0.5629644 0.6075463 0.5629644 0.6075463 0.5739082 0.585659 0.5629644 0.5966026 0.5629644 0.5966026 0.5739082 0.5747152 0.5629644 0.585659 0.5629644 0.585659 0.5739082 0.9078033 0.5826876 0.9078033 0.571744 0.918747 0.571744 0.918747 0.571744 0.918747 0.5608002 0.9296907 0.5608002 0.918747 0.5826876 0.918747 0.571744 0.9296907 0.571744 0.918747 0.5936313 0.918747 0.5826876 0.9296907 0.5826876 0.918747 0.604575 0.918747 0.5936313 0.9296907 0.5936313 0.932747 0.02254718 0.932747 0.01160347 0.9436907 0.01160347 0.9436907 0.01160347 0.9436907 6.59816e-4 0.9546344 6.59817e-4 0.9436907 0.02254718 0.9436907 0.01160347 0.9546344 0.01160347 0.9436907 0.03349083 0.9436907 0.02254718 0.9546344 0.02254718 0.9436907 0.04443454 0.9436907 0.03349083 0.9546344 0.03349083 0.9743587 0.2244789 0.9743587 0.2135353 0.9853025 0.2135353 0.9853025 0.2135353 0.9853025 0.2025915 0.9962461 0.2025915 0.9853025 0.2244789 0.9853025 0.2135353 0.9962461 0.2135353 0.9853025 0.2354226 0.9853025 0.2244789 0.9962461 0.2244789 0.9853025 0.2463663 0.9853025 0.2354226 0.9962461 0.2354226 0.9333422 0.1559973 0.9333422 0.1450536 0.9442859 0.1450536 0.9442859 0.1450536 0.9442859 0.1341099 0.9552296 0.1341099 0.9442859 0.1559973 0.9442859 0.1450536 0.9552296 0.1450536 0.9442859 0.166941 0.9442859 0.1559973 0.9552296 0.1559973 0.9442859 0.1778847 0.9442859 0.166941 0.9552296 0.166941 0.08736479 6.58412e-4 0.08791887 6.58415e-4 0.08791881 0.1902416 0.08791887 6.58415e-4 0.08881264 6.5842e-4 0.08881264 0.1902416 0.08881264 6.5842e-4 0.08970642 6.58411e-4 0.08970642 0.1902416 0.08970642 6.58411e-4 0.0902605 6.58406e-4 0.09026044 0.1902416 0.3487191 6.58338e-4 0.3492732 6.58333e-4 0.3492732 0.1902416 0.3492732 6.58333e-4 0.350167 6.58325e-4 0.350167 0.1902416 0.350167 6.58325e-4 0.3510608 6.58327e-4 0.3510608 0.1902416 0.3510608 6.58327e-4 0.3516148 6.58329e-4 0.3516148 0.1902416 0.3596461 0.1902416 0.3516148 0.1902416 0.3516148 6.58329e-4 0.2831572 0.5114008 0.2831572 0.5118436 0.1425672 0.5118436 0.2831572 0.5118436 0.2831572 0.5125578 0.1425672 0.5125578 0.2831572 0.5125578 0.2831573 0.5132721 0.1425672 0.5132721 0.2831573 0.5132721 0.2831573 0.5137149 0.1425672 0.5137149 0.1412499 0.3015676 0.1412499 0.3020104 6.59885e-4 0.3020104 0.1412499 0.3020104 0.1412499 0.3027246 6.59885e-4 0.3027246 0.1412499 0.3027246 0.1412499 0.3034389 6.59885e-4 0.3034389 0.1412499 0.3034389 0.14125 0.3038817 6.59885e-4 0.3038817 0.3936606 0.4748737 0.3932178 0.4748738 0.3932178 0.3342837 0.3932178 0.4748738 0.3925035 0.4748737 0.3925035 0.3342837 0.3925035 0.4748737 0.3917893 0.4748737 0.3917893 0.3342837 0.3917893 0.4748737 0.3913465 0.4748738 0.3913465 0.3342837 0.2831596 0.2910321 0.2831596 0.2914748 0.1425694 0.2914748 0.2831596 0.2914748 0.2831596 0.2921891 0.1425694 0.2921891 0.2831596 0.2921891 0.2831596 0.2929033 0.1425694 0.2929033 0.2831596 0.2929033 0.2831596 0.2933461 0.1425694 0.2933461 0.3936606 0.332646 0.3932178 0.332646 0.3932178 0.192056 0.3932178 0.332646 0.3925035 0.332646 0.3925035 0.192056 0.3925035 0.332646 0.3917893 0.332646 0.3917893 0.192056 0.3917893 0.332646 0.3913465 0.332646 0.3913465 0.192056 0.2831572 0.5099139 0.2831572 0.5114008 0.1425672 0.5114008 0 0 0 0 0 0</float_array>
          <technique_common>
            <accessor source="#Cube_001-mesh-map-1-array" count="1092" stride="2">
              <param name="S" type="float"/>
              <param name="T" type="float"/>
            </accessor>
          </technique_common>
        </source>
        <vertices id="Cube_001-mesh-vertices">
          <input semantic="POSITION" source="#Cube_001-mesh-positions"/>
        </vertices>
        <triangles material="Fridge-material" count="362">
          <input semantic="VERTEX" source="#Cube_001-mesh-vertices" offset="0"/>
          <input semantic="NORMAL" source="#Cube_001-mesh-normals" offset="1"/>
          <input semantic="TEXCOORD" source="#Cube_001-mesh-map-0" offset="2" set="0"/>
          <input semantic="TEXCOORD" source="#Cube_001-mesh-map-1" offset="2" set="1"/>
          <p>1 0 0 2 0 1 0 0 2 7 1 3 4 1 4 6 1 5 1 2 6 18 3 7 5 4 8 3 2 9 5 4 10 7 2 11 10 0 12 23 0 13 11 0 14 248 2 15 245 5 16 244 2 17 14 1 18 249 1 19 15 1 20 17 6 21 234 7 22 16 7 23 0 8 24 13 8 25 1 8 26 243 9 27 240 10 28 239 11 29 19 12 30 244 7 31 18 7 32 5 8 33 15 8 34 4 8 35 8 13 36 17 6 37 16 7 38 11 14 39 18 7 40 10 15 41 8 13 42 19 12 43 11 14 44 10 15 45 17 6 46 9 16 47 22 7 48 20 7 49 23 7 50 11 2 51 20 2 52 8 2 53 8 1 54 21 1 55 9 1 56 9 17 57 22 17 58 10 17 59 25 17 60 26 17 61 27 17 62 32 7 63 269 7 64 33 7 65 254 2 66 29 2 67 260 2 68 31 17 69 32 17 70 33 17 71 38 7 72 279 7 73 39 7 74 264 2 75 35 2 76 270 2 77 37 17 78 38 17 79 39 17 80 44 7 81 289 7 82 45 7 83 274 2 84 41 2 85 280 2 86 43 17 87 44 17 88 45 17 89 50 7 90 299 7 91 51 7 92 284 2 93 47 2 94 290 2 95 49 17 96 50 17 97 51 17 98 294 2 99 53 2 100 300 2 101 61 18 102 90 19 103 86 20 104 82 21 105 87 22 106 91 23 107 74 24 108 82 21 109 91 23 110 58 25 111 78 26 112 83 27 113 75 28 114 57 29 115 70 30 116 60 31 117 75 28 118 90 19 119 67 32 120 71 33 121 62 34 122 58 25 123 66 35 124 54 36 125 62 34 126 69 37 127 67 32 128 64 38 129 68 39 130 69 37 131 65 40 132 66 35 133 68 39 134 70 30 135 77 41 136 75 28 137 72 42 138 76 43 139 77 41 140 73 44 141 74 24 142 76 43 143 82 21 144 81 45 145 79 46 146 84 47 147 80 48 148 81 45 149 85 49 150 78 26 151 80 48 152 87 22 153 93 50 154 91 23 155 89 51 156 92 52 157 93 50 158 88 53 159 90 19 160 92 52 161 74 24 162 93 50 163 76 43 164 76 43 165 92 52 166 77 41 167 77 41 168 90 19 169 75 28 170 83 27 171 68 39 172 66 35 173 85 49 174 69 37 175 68 39 176 84 47 177 67 32 178 69 37 179 63 54 180 54 36 181 66 35 182 94 2 183 97 2 184 96 2 185 99 0 186 100 0 187 98 0 188 101 8 189 104 8 190 100 8 191 105 1 192 102 1 193 104 1 194 103 7 195 98 7 196 102 7 197 101 2 198 103 2 199 105 2 200 107 0 201 108 0 202 106 0 203 109 8 204 112 8 205 108 8 206 113 1 207 110 1 208 112 1 209 111 7 210 106 7 211 110 7 212 109 2 213 111 2 214 113 2 215 115 0 216 116 0 217 114 0 218 117 8 219 120 8 220 116 8 221 121 1 222 118 1 223 120 1 224 119 7 225 114 7 226 118 7 227 117 2 228 119 2 229 121 2 230 123 0 231 124 0 232 122 0 233 125 8 234 128 8 235 124 8 236 129 1 237 126 1 238 128 1 239 127 7 240 122 7 241 126 7 242 125 2 243 127 2 244 129 2 245 131 0 246 132 0 247 130 0 248 133 8 249 136 8 250 132 8 251 137 1 252 134 1 253 136 1 254 135 7 255 130 7 256 134 7 257 133 2 258 135 2 259 137 2 260 139 0 261 140 0 262 138 0 263 141 8 264 144 8 265 140 8 266 145 1 267 142 1 268 144 1 269 143 7 270 138 7 271 142 7 272 141 2 273 143 2 274 145 2 275 147 0 276 148 0 277 146 0 278 149 8 279 152 8 280 148 8 281 153 1 282 150 1 283 152 1 284 151 7 285 146 7 286 150 7 287 149 2 288 151 2 289 153 2 290 155 0 291 156 0 292 154 0 293 157 8 294 160 8 295 156 8 296 161 1 297 158 1 298 160 1 299 159 7 300 154 7 301 158 7 302 157 2 303 159 2 304 161 2 305 166 2 306 164 2 307 162 2 308 164 7 309 169 7 310 165 7 311 162 1 312 165 1 313 163 1 314 166 8 315 163 8 316 167 8 317 168 0 318 167 0 319 169 0 320 174 2 321 172 2 322 170 2 323 172 7 324 177 7 325 173 7 326 170 1 327 173 1 328 171 1 329 174 8 330 171 8 331 175 8 332 176 0 333 175 0 334 177 0 335 182 2 336 180 2 337 178 2 338 180 7 339 185 7 340 181 7 341 178 1 342 181 1 343 179 1 344 182 8 345 179 8 346 183 8 347 184 0 348 183 0 349 185 0 350 190 2 351 188 2 352 186 2 353 188 7 354 193 7 355 189 7 356 186 1 357 189 1 358 187 1 359 190 8 360 187 8 361 191 8 362 192 0 363 191 0 364 193 0 365 198 2 366 196 2 367 194 2 368 196 7 369 201 7 370 197 7 371 194 1 372 197 1 373 195 1 374 198 8 375 195 8 376 199 8 377 200 0 378 199 0 379 201 0 380 206 2 381 204 2 382 202 2 383 204 7 384 209 7 385 205 7 386 202 1 387 205 1 388 203 1 389 206 8 390 203 8 391 207 8 392 208 0 393 207 0 394 209 0 395 214 2 396 212 2 397 210 2 398 212 7 399 217 7 400 213 7 401 210 1 402 213 1 403 211 1 404 214 8 405 211 8 406 215 8 407 216 0 408 215 0 409 217 0 410 222 2 411 220 2 412 218 2 413 220 7 414 225 7 415 221 7 416 218 1 417 221 1 418 219 1 419 222 8 420 219 8 421 223 8 422 224 0 423 223 0 424 225 0 425 230 2 426 228 2 427 226 2 428 228 7 429 233 7 430 229 7 431 226 1 432 229 1 433 227 1 434 230 8 435 227 8 436 231 8 437 232 0 438 231 0 439 233 0 440 245 55 441 251 56 442 249 55 443 248 57 444 252 58 445 251 56 446 247 59 447 253 60 448 252 58 449 246 61 450 250 62 451 253 60 452 240 63 453 236 64 454 234 63 455 243 65 456 237 66 457 236 64 458 242 67 459 238 68 460 237 66 461 241 69 462 235 70 463 238 68 464 12 0 465 239 0 466 13 0 467 255 71 468 261 72 469 259 73 470 258 74 471 262 75 472 261 72 473 257 76 474 263 77 475 262 75 476 256 78 477 260 79 478 263 77 479 265 80 480 271 81 481 269 82 482 268 83 483 272 75 484 271 81 485 267 76 486 273 84 487 272 75 488 266 85 489 270 86 490 273 84 491 275 80 492 281 81 493 279 82 494 278 83 495 282 75 496 281 81 497 277 76 498 283 84 499 282 75 500 276 85 501 280 86 502 283 84 503 285 80 504 291 87 505 289 82 506 288 88 507 292 89 508 291 87 509 287 90 510 293 91 511 292 89 512 286 92 513 290 86 514 293 91 515 295 80 516 301 87 517 299 82 518 298 88 519 302 89 520 301 87 521 297 90 522 303 91 523 302 89 524 296 92 525 300 86 526 303 91 527 26 7 528 259 7 529 27 7 530 1 0 534 3 0 535 2 0 536 7 1 537 5 1 538 4 1 539 1 2 540 17 2 541 18 3 542 3 2 543 1 2 544 5 4 545 10 0 546 22 0 547 23 0 548 14 2 549 5 4 550 245 5 551 5 4 552 18 3 553 245 5 554 18 3 555 244 2 556 245 5 557 244 2 558 246 2 559 248 2 560 246 2 561 247 2 562 248 2 563 14 1 564 245 1 565 249 1 566 17 6 567 240 7 568 234 7 569 0 8 570 12 8 571 13 8 572 240 10 573 17 2 574 239 11 575 17 2 576 1 2 577 239 11 578 1 2 579 13 2 580 239 11 581 239 11 582 241 94 583 242 95 584 242 95 585 243 9 586 239 11 587 19 12 588 250 7 589 244 7 590 5 8 591 14 8 592 15 8 593 8 13 594 9 16 595 17 6 596 11 14 597 19 12 598 18 7 599 8 13 600 16 7 601 19 12 602 10 15 603 18 7 604 17 6 605 22 7 606 21 7 607 20 7 608 11 2 609 23 2 610 20 2 611 8 1 612 20 1 613 21 1 614 9 17 615 21 17 616 22 17 617 25 17 618 24 17 619 26 17 620 32 7 621 265 7 622 269 7 623 254 2 624 28 2 625 29 2 626 31 17 627 30 17 628 32 17 629 38 7 630 275 7 631 279 7 632 264 2 633 34 2 634 35 2 635 37 17 636 36 17 637 38 17 638 44 7 639 285 7 640 289 7 641 274 2 642 40 2 643 41 2 644 43 17 645 42 17 646 44 17 647 50 7 648 295 7 649 299 7 650 284 2 651 46 2 652 47 2 653 49 17 654 48 17 655 50 17 656 294 2 657 52 2 658 53 2 659 61 18 660 60 31 661 90 19 662 82 21 663 79 46 664 87 22 665 74 24 666 67 32 667 82 21 668 58 25 669 59 96 670 78 26 671 75 28 672 56 97 673 57 29 674 60 31 675 56 97 676 75 28 677 67 32 678 74 24 679 71 33 680 58 25 681 83 27 682 66 35 683 62 34 684 64 38 685 69 37 686 64 38 687 65 40 688 68 39 689 65 40 690 63 54 691 66 35 692 70 30 693 72 42 694 77 41 695 72 42 696 73 44 697 76 43 698 73 44 699 71 33 700 74 24 701 82 21 702 84 47 703 81 45 704 84 47 705 85 49 706 80 48 707 85 49 708 83 27 709 78 26 710 87 22 711 89 51 712 93 50 713 89 51 714 88 53 715 92 52 716 88 53 717 86 20 718 90 19 719 74 24 720 91 23 721 93 50 722 76 43 723 93 50 724 92 52 725 77 41 726 92 52 727 90 19 728 83 27 729 85 49 730 68 39 731 85 49 732 84 47 733 69 37 734 84 47 735 82 21 736 67 32 737 63 54 738 55 98 739 54 36 740 94 2 741 95 2 742 97 2 743 99 0 744 101 0 745 100 0 746 101 8 747 105 8 748 104 8 749 105 1 750 103 1 751 102 1 752 103 7 753 99 7 754 98 7 755 101 2 756 99 2 757 103 2 758 107 0 759 109 0 760 108 0 761 109 8 762 113 8 763 112 8 764 113 1 765 111 1 766 110 1 767 111 7 768 107 7 769 106 7 770 109 2 771 107 2 772 111 2 773 115 0 774 117 0 775 116 0 776 117 8 777 121 8 778 120 8 779 121 1 780 119 1 781 118 1 782 119 7 783 115 7 784 114 7 785 117 2 786 115 2 787 119 2 788 123 0 789 125 0 790 124 0 791 125 8 792 129 8 793 128 8 794 129 1 795 127 1 796 126 1 797 127 7 798 123 7 799 122 7 800 125 2 801 123 2 802 127 2 803 131 0 804 133 0 805 132 0 806 133 8 807 137 8 808 136 8 809 137 1 810 135 1 811 134 1 812 135 7 813 131 7 814 130 7 815 133 2 816 131 2 817 135 2 818 139 0 819 141 0 820 140 0 821 141 8 822 145 8 823 144 8 824 145 1 825 143 1 826 142 1 827 143 7 828 139 7 829 138 7 830 141 2 831 139 2 832 143 2 833 147 0 834 149 0 835 148 0 836 149 8 837 153 8 838 152 8 839 153 1 840 151 1 841 150 1 842 151 7 843 147 7 844 146 7 845 149 2 846 147 2 847 151 2 848 155 0 849 157 0 850 156 0 851 157 8 852 161 8 853 160 8 854 161 1 855 159 1 856 158 1 857 159 7 858 155 7 859 154 7 860 157 2 861 155 2 862 159 2 863 166 2 864 168 2 865 164 2 866 164 7 867 168 7 868 169 7 869 162 1 870 164 1 871 165 1 872 166 8 873 162 8 874 163 8 875 168 0 876 166 0 877 167 0 878 174 2 879 176 2 880 172 2 881 172 7 882 176 7 883 177 7 884 170 1 885 172 1 886 173 1 887 174 8 888 170 8 889 171 8 890 176 0 891 174 0 892 175 0 893 182 2 894 184 2 895 180 2 896 180 7 897 184 7 898 185 7 899 178 1 900 180 1 901 181 1 902 182 8 903 178 8 904 179 8 905 184 0 906 182 0 907 183 0 908 190 2 909 192 2 910 188 2 911 188 7 912 192 7 913 193 7 914 186 1 915 188 1 916 189 1 917 190 8 918 186 8 919 187 8 920 192 0 921 190 0 922 191 0 923 198 2 924 200 2 925 196 2 926 196 7 927 200 7 928 201 7 929 194 1 930 196 1 931 197 1 932 198 8 933 194 8 934 195 8 935 200 0 936 198 0 937 199 0 938 206 2 939 208 2 940 204 2 941 204 7 942 208 7 943 209 7 944 202 1 945 204 1 946 205 1 947 206 8 948 202 8 949 203 8 950 208 0 951 206 0 952 207 0 953 214 2 954 216 2 955 212 2 956 212 7 957 216 7 958 217 7 959 210 1 960 212 1 961 213 1 962 214 8 963 210 8 964 211 8 965 216 0 966 214 0 967 215 0 968 222 2 969 224 2 970 220 2 971 220 7 972 224 7 973 225 7 974 218 1 975 220 1 976 221 1 977 222 8 978 218 8 979 219 8 980 224 0 981 222 0 982 223 0 983 230 2 984 232 2 985 228 2 986 228 7 987 232 7 988 233 7 989 226 1 990 228 1 991 229 1 992 230 8 993 226 8 994 227 8 995 232 0 996 230 0 997 231 0 998 245 55 999 248 57 1000 251 56 1001 248 57 1002 247 59 1003 252 58 1004 247 59 1005 246 61 1006 253 60 1007 246 61 1008 244 62 1009 250 62 1010 240 63 1011 243 65 1012 236 64 1013 243 65 1014 242 67 1015 237 66 1016 242 67 1017 241 69 1018 238 68 1019 241 69 1020 239 70 1021 235 70 1022 12 0 1023 235 0 1024 239 0 1025 255 71 1026 258 74 1027 261 72 1028 258 74 1029 257 76 1030 262 75 1031 257 76 1032 256 78 1033 263 77 1034 256 78 1035 254 99 1036 260 79 1037 265 80 1038 268 83 1039 271 81 1040 268 83 1041 267 76 1042 272 75 1043 267 76 1044 266 85 1045 273 84 1046 266 85 1047 264 100 1048 270 86 1049 275 80 1050 278 83 1051 281 81 1052 278 83 1053 277 76 1054 282 75 1055 277 76 1056 276 85 1057 283 84 1058 276 85 1059 274 100 1060 280 86 1061 285 80 1062 288 88 1063 291 87 1064 288 88 1065 287 90 1066 292 89 1067 287 90 1068 286 92 1069 293 91 1070 286 92 1071 284 100 1072 290 86 1073 295 80 1074 298 88 1075 301 87 1076 298 88 1077 297 90 1078 302 89 1079 297 90 1080 296 92 1081 303 91 1082 296 92 1083 294 100 1084 300 86 1085 26 7 1086 255 7 1087 259 7 1088</p>
        </triangles>
        <triangles material="Glass-material" count="2">
          <input semantic="VERTEX" source="#Cube_001-mesh-vertices" offset="0"/>
          <input semantic="NORMAL" source="#Cube_001-mesh-normals" offset="1"/>
          <input semantic="TEXCOORD" source="#Cube_001-mesh-map-0" offset="2" set="0"/>
          <input semantic="TEXCOORD" source="#Cube_001-mesh-map-1" offset="2" set="1"/>
          <p>305 93 531 306 93 532 304 93 533 305 93 1089 307 93 1090 306 93 1091</p>
        </triangles>
      </mesh>
    </geometry>
  </library_geometries>
  <library_visual_scenes>
    <visual_scene id="Scene" name="Scene">
      <node id="Cube" name="Cube" type="NODE">
        <matrix sid="transform">1 0 0 0 0 1 2.8213e-7 0 0 -2.8213e-7 1 0 0 0 0 1</matrix>
        <instance_geometry url="#Cube_001-mesh" name="Cube">
          <bind_material>
            <technique_common>
              <instance_material symbol="Fridge-material" target="#Fridge-material">
                <bind_vertex_input semantic="UVMap" input_semantic="TEXCOORD" input_set="0"/>
                <bind_vertex_input semantic="UV2" input_semantic="TEXCOORD" input_set="1"/>
              </instance_material>
              <instance_material symbol="Glass-material" target="#Glass-material">
                <bind_vertex_input semantic="UVMap" input_semantic="TEXCOORD" input_set="0"/>
                <bind_vertex_input semantic="UV2" input_semantic="TEXCOORD" input_set="1"/>
              </instance_material>
            </technique_common>
          </bind_material>
        </instance_geometry>
      </node>
    </visual_scene>
  </library_visual_scenes>
  <scene>
    <instance_visual_scene url="#Scene"/>
  </scene>
</COLLADA>